<?xml version="1.0" encoding="UTF-8"?>
<svg id="Layer_2" data-name="Layer 2" xmlns="http://www.w3.org/2000/svg" viewBox="0 0 209.89 40.91">
  <defs>
    <style>
      .cls-1 {
        fill: #fff;
        stroke-width: 0px;
      }
    </style>
  </defs>
  <g id="Desktop">
    <g id="Blueberry">
      <path id="B" class="cls-1" d="M27.76,24c0,5.38-5.91,8.6-15.69,8.6H3.28c-1.67.13-3.13-1.11-3.28-2.78,0-.87.63-2.39.63-3.28V7.39c0-.89-.63-2.4-.63-3.32C.14,2.4,1.61,1.16,3.28,1.3h8.75c9.16,0,15.27,2.89,15.27,8.07,0,3.05-2.19,5.42-6.11,6.74-.44.15-.44.35,0,.49,4.27,1.44,6.57,4.02,6.57,7.4ZM10.89,14.28c-.02.46.32.86.78.92.59.07,1.17.1,1.76.1,2.25,0,2.73-2.3,2.6-5.72-.15-3.96-1.39-5.72-3.96-5.72h-.4c-.46.07-.79.46-.78.92v9.49ZM10.89,29.13c-.02.46.32.87.78.93.42.07.84.1,1.27.1,2.64,0,3.72-1.96,3.57-6.36-.1-3.23-1.08-6.35-4.86-6.35-.48.09-.81.53-.78,1.01v10.66Z"/>
      <path id="l" class="cls-1" d="M29.52,29.81c0-.87.64-2.39.64-3.28V7.48c0-1.02-.69-2.29-.69-3.47,0-1.63,1.27-2.97,2.89-3.05L37.66.06c1.39-.25,2.35.28,2.35,1.51v24.98c0,.88.63,2.4.63,3.28-.15,1.68-1.62,2.92-3.3,2.78h-4.5c-1.68.15-3.16-1.09-3.32-2.77,0,0,0-.01,0-.02Z"/>
      <path id="u" class="cls-1" d="M48.62,32.99c-3.95,0-5.71-2.15-5.71-5.55v-12.29c0-1.01-.69-2.3-.69-3.47,0-1.62,1.26-2.97,2.89-3.05l5.22-.89c1.39-.24,2.35.3,2.35,1.52v13.32c0,2.89.59,4.07,1.9,4.07,1.26-.04,2.27-1.04,2.32-2.3v-9.17c0-1.01-.69-2.3-.69-3.47,0-1.62,1.26-2.96,2.88-3.05l5.22-.89c1.39-.24,2.35.3,2.35,1.52v17.24c0,.88.63,2.4.63,3.28-.15,1.66-1.6,2.9-3.27,2.78h-4.5c-1.68.12-3.14-1.14-3.27-2.82,0-.02,0-.04,0-.06v-.3c.1-.59-.09-.69-.49-.3-1.96,1.98-4.69,3.88-7.15,3.88Z"/>
      <path id="e" class="cls-1" d="M83.77,22.78c2.43-.08,4.78-.92,6.7-2.42.39-.29.63-.1.63.49,0,6.88-5.23,12.21-11.64,12.21s-10.84-5.45-10.84-12.64c0-6.24,3.66-12.8,10.89-12.8,3.87,0,6.94,1.85,8.15,4.59,1.33,3.05.1,5.67-3.51,5.67h-6.88c-.33,0-.53.19-.38.54,1.16,2.75,3.91,4.48,6.89,4.34ZM79.96,15.76c.34-.05.59-.35.58-.69,0-1.56-.3-5.71-2.54-5.71-1.57,0-2.25,3.17-1.86,6.24.04.31.31.53.62.49,0,0,0,0,0,0h.05l3.14-.33Z"/>
      <path id="b" class="cls-1" d="M111.84,8.79c-1.52-.72-3.26-1.1-5.16-1.1-1.23-.05-2.45.18-3.57.68-.35.14-.54.05-.54-.3V1.57c0-1.22-.95-1.76-2.34-1.5l-5.22.89c-1.62.09-2.9,1.44-2.88,3.06,0,1.17.69,2.45.69,3.47v21.09c0,2.63,1.02,4.01,2.97,4.01,1.29.03,2.54-.36,3.59-1.1.26-.2.62-.2.87,0,1.64,1.17,3.62,1.76,5.63,1.62,1.13,0,2.19-.1,3.18-.35.14-.02.27-.05.41-.09,5.54-1.34,8.95-5.93,8.95-12.28,0-5.54-2.51-9.74-6.56-11.6ZM106.18,31.41c-1.86.26-3.62-2.97-3.62-8.84v-8.75c.12-2.51.39-3.77,1.52-3.9,2.09-.33,2.94,2.85,3.72,10.18.78,7.13.23,11.08-1.62,11.32Z"/>
      <path id="e-2" data-name="e" class="cls-1" d="M141.23,20.36c-1.92,1.5-4.26,2.34-6.69,2.42-2.97.12-5.72-1.62-6.86-4.38-.15-.33.05-.53.39-.53h6.84c3.62,0,4.83-2.61,3.51-5.67-1.2-2.73-4.28-4.59-8.14-4.59-7.28,0-10.91,6.56-10.91,12.8,0,7.18,4.46,12.65,10.85,12.65s11.63-5.33,11.63-12.2c0-.6-.24-.8-.63-.5ZM127.53,16.1c-.3.03-.57-.2-.62-.5-.39-3.08.3-6.24,1.86-6.24,2.24,0,2.54,4.14,2.54,5.7.02.35-.24.65-.59.69l-3.12.35h-.08Z"/>
      <path id="r" class="cls-1" d="M153.35,26.54c0,.87.65,2.4.65,3.27-.15,1.68-1.64,2.93-3.32,2.78h-4.5c-1.67.12-3.12-1.11-3.27-2.78,0-.87.65-2.4.65-3.29v-11.38c0-1.01-.69-2.3-.69-3.47,0-.2.02-.38.06-.56.02-.14.04-.27.11-.39.36-1.17,1.43-2.04,2.72-2.1l4.01-.71c2.39-.39,3.57.71,3.57,3.51v4.86c0,.45.39.5.39,0,.14-5.9,1.94-8.62,5.57-8.62,2.58,0,3.62,2.03,3.75,4.34.35,5.96-5.48,6.11-9.68,6.74v7.78Z"/>
      <path id="r-2" data-name="r" class="cls-1" d="M174.24,18.77v7.78c0,.87.63,2.4.63,3.27-.15,1.64-1.58,2.87-3.23,2.78h-4.49c-1.67.12-3.12-1.11-3.29-2.78,0-.87.63-2.4.63-3.27v-11.39c0-1.01-.69-2.3-.69-3.47,0-1.62,1.26-2.96,2.88-3.05l4.01-.71c1.41-.23,2.39.04,2.96.89.09.12.15.24.21.38.27.56.41,1.31.41,2.25v4.86c0,.45.38.5.38,0,.17-5.9,1.97-8.62,5.54-8.62,2.58,0,3.62,2.03,3.78,4.34.33,5.96-5.49,6.11-9.73,6.74Z"/>
      <path id="y" class="cls-1" d="M209.89,14.37c0,9.17-10.75,26.54-19.78,26.54-2.66,0-4.86-.89-5.18-3.71-.3-2.45,1.17-4.08,3.86-4.08,2.3,0,3.96.83,5.66.83.92,0,1.79-.27,2.54-.78.5-.29.41-.59-.18-.63-4.25-.39-7.76-3.5-8.65-7.67l-2.4-9.88c-.44-1.76-1.32-2.76-1.56-4.44-.2-1.52.44-2.39,2.04-2.39h6.74c1.38,0,2.03.29,2.33,1.5l4.8,19.02c.14.57.44.63.69.09,2.51-5.37-.42-12.04-.42-15.61,0-3.27,2.03-5.46,5.01-5.46s4.5,1.61,4.5,6.68Z"/>
    </g>
  </g>
</svg>