<?xml version="1.0" encoding="UTF-8"?>
<svg id="Layer_2" data-name="Layer 2" xmlns="http://www.w3.org/2000/svg" viewBox="0 0 70.96 55.21">
  <defs>
    <style>
      .cls-1 {
        fill: #fff;
        stroke-width: 0px;
      }
    </style>
  </defs>
  <g id="Desktop">
    <g>
      <path class="cls-1" d="M40.09,17.31c.51,1.52,1.36,2.91,2.57,4.16,1.25,1.32,2.91,2.33,4.97,3.06s4.72,1.1,7.99,1.1h4.41c-.51,5.46-2.98,11.23-5.61,15.59-4.81,7.99-10.74,13.98-10.74,13.98,7.52-3.29,13.96-8.14,19.28-14.54,5.35-6.4,8.01-12.75,8.01-19.04,0-6.76-1.54-12.06-4.65-15.88-3.11-3.83-7.54-5.75-13.33-5.75-3.67,0-6.87,1.28-9.57,3.78-2.71,2.53-4.05,5.46-4.05,8.81,0,1.61.25,3.2.74,4.72Z"/>
      <path class="cls-1" d="M.74,17.31c.51,1.52,1.36,2.91,2.57,4.16,1.25,1.32,2.91,2.33,4.97,3.06s4.72,1.1,7.99,1.1h4.41c-.51,5.46-2.98,11.23-5.61,15.59-4.81,7.99-10.74,13.98-10.74,13.98,7.52-3.29,13.96-8.14,19.28-14.54,5.35-6.4,8.01-12.75,8.01-19.04,0-6.76-1.54-12.06-4.65-15.88C23.84,1.92,19.42,0,13.62,0c-3.67,0-6.87,1.28-9.57,3.78C1.34,6.31,0,9.24,0,12.59c0,1.61.25,3.2.74,4.72Z"/>
    </g>
  </g>
</svg>