<svg width="40" height="27" viewBox="0 0 40 27" fill="none" xmlns="http://www.w3.org/2000/svg">
<g clip-path="url(#clip0_19_31)">
<path d="M20.166 27.0003C19.6782 27.0003 19.1985 26.7825 18.8747 26.3715L0.348468 2.65918C0.114789 2.35507 0 2.00164 0 1.64411C0 1.15507 0.21728 0.674244 0.627242 0.349587C1.34058 -0.209317 2.37368 -0.0819202 2.93123 0.629039L21.4574 24.3414C21.6911 24.6414 21.8059 24.9989 21.8059 25.3523C21.8059 25.8414 21.5886 26.3222 21.1786 26.6468C20.8794 26.8811 20.5227 26.9962 20.1701 26.9962L20.166 27.0003Z" fill="white"/>
<path d="M20.1619 27C19.8135 27 19.4609 26.889 19.1616 26.6589C18.7435 26.3342 18.5221 25.8493 18.5221 25.3562C18.5221 25.0068 18.6328 24.6534 18.8624 24.3534L37.0606 0.641089C37.614 -0.0780894 38.643 -0.213706 39.3605 0.341089C39.7786 0.665746 40 1.15068 40 1.64383C40 1.99314 39.8893 2.34657 39.6597 2.64657L21.4656 26.3589C21.1418 26.7781 20.658 27 20.166 27H20.1619Z" fill="white"/>
</g>
<defs>
<clipPath id="clip0_19_31">
<rect width="40" height="27" fill="white"/>
</clipPath>
</defs>
</svg>
