<svg width="667" height="665" viewBox="0 0 667 665" fill="none" xmlns="http://www.w3.org/2000/svg">
   <path
      d="M666.667 333.333C666.667 149.239 517.428 -1.97955e-05 333.333 -1.97955e-05C149.239 -1.97955e-05 0 149.239 0 333.333C0 489.66 107.62 620.829 252.808 656.851V435.195H184.072V333.333H252.808V289.441C252.808 175.985 304.152 123.399 415.539 123.399C436.656 123.399 473.095 127.539 488.001 131.68V224.019C480.133 223.191 466.469 222.776 449.492 222.776C394.835 222.776 373.716 243.48 373.716 297.309V333.333H482.595L463.891 435.195H373.716V664.225C538.764 644.291 666.667 503.757 666.667 333.333Z"
      fill="#231f20" />
</svg>