<?xml version="1.0" encoding="UTF-8"?>
<svg id="Layer_2" data-name="Layer 2" xmlns="http://www.w3.org/2000/svg" viewBox="0 0 511.6 511.5">
  <defs>
    <style>
      .cls-1 {
        fill: white;
        stroke-width: 0px;
      }
    </style>
  </defs>
  <g id="Layer_1-2" data-name="Layer 1">
    <g>
      <path class="cls-1" d="M88.28,13.41c-16.85,6.55-31.09,15.29-45.34,29.53-14.25,14.14-22.98,28.49-29.53,45.23-6.34,16.22-10.61,34.83-11.85,62.08-1.25,27.24-1.56,35.98-1.56,105.44s.31,78.2,1.56,105.44c1.25,27.24,5.62,45.86,11.85,62.08,6.55,16.85,15.29,31.09,29.53,45.34,14.25,14.25,28.49,22.98,45.34,29.53,16.22,6.34,34.83,10.61,62.08,11.85,27.24,1.25,35.98,1.56,105.44,1.56s78.2-.31,105.44-1.56c27.24-1.25,45.86-5.62,62.08-11.85,16.85-6.55,31.09-15.29,45.34-29.53,14.25-14.25,22.98-28.49,29.53-45.34,6.34-16.22,10.61-34.83,11.85-62.08,1.25-27.24,1.56-35.98,1.56-105.44s-.31-78.2-1.56-105.44c-1.25-27.24-5.62-45.86-11.85-62.08-6.55-16.74-15.29-31.09-29.43-45.23-14.25-14.25-28.49-22.98-45.34-29.53-16.22-6.34-34.83-10.61-62.08-11.85-27.24-1.25-35.98-1.56-105.44-1.56s-78.2.31-105.44,1.56c-27.35,1.14-45.96,5.51-62.18,11.85ZM359.16,47.52c24.96,1.14,38.47,5.3,47.52,8.84,11.96,4.68,20.48,10.19,29.43,19.13,8.94,8.94,14.45,17.47,19.13,29.43,3.54,9.05,7.69,22.56,8.84,47.52,1.25,26.93,1.46,35.04,1.46,103.36s-.31,76.43-1.46,103.36c-1.14,24.96-5.3,38.47-8.84,47.52-4.68,11.96-10.19,20.48-19.13,29.43-8.94,8.94-17.47,14.45-29.43,19.13-9.05,3.54-22.56,7.69-47.52,8.84-26.93,1.25-35.04,1.46-103.36,1.46s-76.43-.31-103.36-1.46c-24.96-1.14-38.47-5.3-47.52-8.84-11.96-4.68-20.48-10.19-29.43-19.13-8.94-8.94-14.45-17.47-19.13-29.43-3.54-9.05-7.69-22.56-8.84-47.52-1.25-26.93-1.46-35.04-1.46-103.36s.31-76.43,1.46-103.36c1.14-24.96,5.3-38.47,8.84-47.52,4.68-11.96,10.19-20.48,19.13-29.43,8.94-8.94,17.47-14.45,29.43-19.13,9.05-3.54,22.56-7.69,47.52-8.84,26.93-1.25,35.04-1.46,103.36-1.46s76.43.21,103.36,1.46Z"/>
      <path class="cls-1" d="M124.47,255.8c0,72.58,58.86,131.33,131.33,131.33s131.33-58.86,131.33-131.33-58.75-131.33-131.33-131.33-131.33,58.75-131.33,131.33ZM341.07,255.8c0,47.1-38.16,85.27-85.27,85.27s-85.27-38.16-85.27-85.27,38.16-85.27,85.27-85.27,85.27,38.16,85.27,85.27Z"/>
      <circle class="cls-1" cx="392.44" cy="119.27" r="30.68"/>
    </g>
  </g>
</svg>