<svg xmlns="http://www.w3.org/2000/svg" viewBox="0 0 29.06 29.06"><defs><style>.cls-1{fill:#2967bb;}</style></defs><g id="Layer_2" data-name="Layer 2"><g id="Contact_Us" data-name="Contact Us"><g id="LinkedIn"><path class="cls-1" d="M24.76,24.76H20.45V18c0-1.61,0-3.68-2.24-3.68s-2.58,1.75-2.58,3.56v6.86H11.32V10.89h4.14v1.9h0a4.56,4.56,0,0,1,4.08-2.24c4.37,0,5.17,2.87,5.17,6.6ZM6.46,9h0A2.5,2.5,0,1,1,9,6.5H9A2.51,2.51,0,0,1,6.46,9M8.62,24.76H4.31V10.89H8.62ZM26.9,0H2.14A2.13,2.13,0,0,0,0,2.1V27a2.13,2.13,0,0,0,2.14,2.1H26.9A2.14,2.14,0,0,0,29.06,27V2.09A2.14,2.14,0,0,0,26.9,0"/></g></g></g></svg>