<?xml version="1.0" encoding="UTF-8"?>
<svg id="Layer_2" data-name="Layer 2" xmlns="http://www.w3.org/2000/svg" viewBox="0 0 118.18 91.95">
  <defs>
    <style>
      .cls-1 {
        fill: #fff;
        stroke-width: 0px;
      }
    </style>
  </defs>
  <g id="Desktop">
    <g>
      <path class="cls-1" d="M51.41,63.11c-.86-2.53-2.27-4.84-4.28-6.93-2.09-2.2-4.84-3.87-8.27-5.1-3.43-1.23-7.86-1.82-13.3-1.82h-7.34c.86-9.09,4.96-18.7,9.35-25.97C35.58,9.99,45.45,0,45.45,0c-12.52,5.48-23.25,13.56-32.11,24.22C4.43,34.87,0,45.45,0,55.92c0,11.25,2.57,20.08,7.75,26.45,5.18,6.37,12.56,9.58,22.2,9.58,6.11,0,11.44-2.12,15.95-6.3,4.51-4.21,6.74-9.09,6.74-14.68,0-2.68-.41-5.33-1.23-7.86Z"/>
      <path class="cls-1" d="M116.95,63.11c-.86-2.53-2.27-4.84-4.28-6.93-2.09-2.2-4.84-3.87-8.27-5.1-3.43-1.23-7.86-1.82-13.3-1.82h-7.34c.86-9.09,4.96-18.7,9.35-25.97C101.12,9.99,110.99,0,110.99,0c-12.52,5.48-23.25,13.56-32.11,24.22-8.9,10.65-13.34,21.24-13.34,31.71,0,11.25,2.57,20.08,7.75,26.45,5.18,6.37,12.56,9.58,22.2,9.58,6.11,0,11.44-2.12,15.95-6.3,4.51-4.21,6.74-9.09,6.74-14.68,0-2.68-.41-5.33-1.23-7.86Z"/>
    </g>
  </g>
</svg>