<svg xmlns="http://www.w3.org/2000/svg" viewBox="0 0 167.94 167.94"><defs><style>.cls-1{fill:#54b25e;}</style></defs><g id="Layer_2" data-name="Layer 2"><g id="Layer_1-2" data-name="Layer 1"><circle class="cls-1" cx="83.97" cy="83.97" r="83.97"/><path d="M72.17,43.68c1.22,0,3.39,0,5.56.12,2.44.1,4.87.23,7.3.42s5.07.45,7.6.76a154.38,154.38,0,0,1,22.45,4.4,109.47,109.47,0,0,1,23.68,9.4A31.5,31.5,0,0,1,142.33,61,6.84,6.84,0,0,1,145,65.65a8.64,8.64,0,0,1-.42,4.85,7.72,7.72,0,0,1-6,4.83,8,8,0,0,1-5.8-1.21,85,85,0,0,0-19-8.11,126.69,126.69,0,0,0-14.4-3.44c-2.22-.41-4.46-.73-6.69-1-2.06-.29-4.13-.55-6.2-.75s-4-.3-6.06-.45c-4.65-.33-9.31-.32-14-.23-2,0-4,.19-5.95.32-1.52.09-3,.2-4.55.35s-3.27.36-4.89.61c-2.11.32-4.22.64-6.31,1.09-2.72.58-5.42,1.31-8.13,2a15.83,15.83,0,0,1-3,.54,7.69,7.69,0,0,1-7.85-5.9,8.5,8.5,0,0,1,1.32-7.27,8,8,0,0,1,4.8-3.09c3-.74,5.92-1.53,8.91-2.16,2.55-.54,5.14-.92,7.72-1.32,1.7-.26,3.42-.47,5.14-.65,1.43-.16,2.86-.25,4.29-.37C62.36,43.83,66.79,43.7,72.17,43.68Z"/><path d="M69.41,72.49c2.23.06,4.46.08,6.68.19q2.94.13,5.86.42,5.65.56,11.26,1.58a115.89,115.89,0,0,1,23.51,6.88,95.11,95.11,0,0,1,13,6.52,7,7,0,0,1,3.54,5.32,6.72,6.72,0,0,1-5.19,7.72,6,6,0,0,1-4.25-.62c-2-1.07-4-2.2-6-3.23A89.62,89.62,0,0,0,100,90.43c-3.26-.88-6.57-1.61-9.88-2.27-2.35-.47-4.74-.77-7.12-1s-4.6-.5-6.9-.59c-3.51-.13-7-.2-10.53-.15-2.45,0-4.9.24-7.33.5a98.82,98.82,0,0,0-18.28,3.57A6.56,6.56,0,0,1,31.5,86.1a6.93,6.93,0,0,1,1.93-7.42A7.73,7.73,0,0,1,36.93,77c3-.74,5.93-1.51,8.91-2.16,2.21-.48,4.45-.84,6.68-1.15s4.66-.58,7-.75c2.63-.2,5.27-.26,7.9-.37.66,0,1.33,0,2,0Z"/><path d="M70.72,111c-1.84,0-3.69,0-5.54.15-2,.11-4,.29-6.06.48-1.79.17-3.58.37-5.36.62-2,.28-4,.59-5.94,1-2.34.45-4.66,1-7,1.49a5.21,5.21,0,0,1-6-3.86,5.93,5.93,0,0,1,.83-5,5.4,5.4,0,0,1,3.56-2.16c3.45-.68,6.91-1.36,10.38-2,2.31-.39,4.64-.68,7-.93,2.52-.27,5-.54,7.57-.65,3.24-.13,6.48-.12,9.73-.12,1.56,0,3.13.08,4.69.18s2.94.24,4.41.41c1.71.2,3.43.42,5.13.68a86.65,86.65,0,0,1,10.69,2.33,85.27,85.27,0,0,1,20.48,8.77,8.72,8.72,0,0,1,2.45,2,5.08,5.08,0,0,1,1,2.77,5.83,5.83,0,0,1-.86,4,5.25,5.25,0,0,1-6.73,1.64c-1.73-.9-3.4-1.93-5.13-2.84a72.56,72.56,0,0,0-18.09-6.66c-2.71-.61-5.46-1.06-8.2-1.51a42.37,42.37,0,0,0-4.36-.45c-2.88-.19-5.77-.31-8.65-.47Z"/></g></g></svg>