<svg xmlns="http://www.w3.org/2000/svg" viewBox="0 0 128.93 145.69"><defs><style>.cls-1{fill:#ff004f;}.cls-2{fill:#00f2ea;}</style></defs><g id="Layer_2" data-name="Layer 2"><g id="Layer_1-2" data-name="Layer 1"><path class="cls-1" d="M95.55,52.59a57.24,57.24,0,0,0,33.38,10.68V39.33a33.65,33.65,0,0,1-7-.74V57.44A57.24,57.24,0,0,1,88.54,46.76V95.61a44.28,44.28,0,0,1-68.91,36.77,44.27,44.27,0,0,0,75.92-30.94V52.59Zm8.65-24.15A33.32,33.32,0,0,1,95.55,8.91V5.83H88.91A33.5,33.5,0,0,0,104.2,28.44ZM35.09,113.62A20.24,20.24,0,0,1,51.21,81.13a20.29,20.29,0,0,1,6.14,1V57.61a44.3,44.3,0,0,0-7-.41v19a20.25,20.25,0,0,0-15.26,37.37Z"/><path d="M88.54,46.76a57.24,57.24,0,0,0,33.38,10.68V38.59A33.39,33.39,0,0,1,104.2,28.44,33.5,33.5,0,0,1,88.91,5.83H71.46v95.61a20.25,20.25,0,0,1-36.37,12.18A20.23,20.23,0,0,1,44.2,75.31a20.49,20.49,0,0,1,6.15.94v-19a44.25,44.25,0,0,0-30.72,75.18A44.28,44.28,0,0,0,88.54,95.61V46.76Z"/><path class="cls-2" d="M121.92,38.59V33.5a33.31,33.31,0,0,1-17.72-5.06A33.4,33.4,0,0,0,121.92,38.59Zm-33-32.76c-.16-.91-.28-1.83-.37-2.75V0H64.45V95.61a20.27,20.27,0,0,1-29.36,18,20.26,20.26,0,0,0,36.37-12.19V5.83ZM50.35,57.2V51.78a44.25,44.25,0,0,0-30.72,80.6A44.25,44.25,0,0,1,50.35,57.2Z"/></g></g></svg>