<svg xmlns="http://www.w3.org/2000/svg" viewBox="0 0 183.55 170.62"><defs><style>.cls-1{opacity:0.5;}.cls-2{fill:#273655;}.cls-3{fill:#4e658f;}.cls-4{fill:#1e1f27;}</style></defs><g id="Layer_2" data-name="Layer 2"><g id="Article"><g id="Background"><g id="Layer_2-2" data-name="Layer 2" class="cls-1"><g id="Icon_color_" data-name="Icon color "><g id="Sphere"><path class="cls-2" d="M183.55,129.86A129.29,129.29,0,0,1,177,170.62H0v-159l.52-.24A128.34,128.34,0,0,1,28.06,2.55c3.28-.67,6.61-1.2,10-1.61Q39.57.76,41.1.61c.59-.06,1.18-.12,1.77-.16l.89-.07L45.5.26,47.06.17C48.15.11,49.23.07,50.32,0h.14l1.6,0h1.75c1.42,0,2.84,0,4.26.07q3.18.11,6.36.37,4.45.36,8.87,1l1.64.26c.7.11,1.39.23,2.08.36l2.08.4q2.1.41,4.17.9l2,.49c1.42.35,2.84.73,4.25,1.14,2,.56,3.94,1.18,5.89,1.84.73.24,1.45.5,2.17.75,1.22.44,2.43.9,3.63,1.37a129.78,129.78,0,0,1,82.33,120.87Z"/><path class="cls-3" d="M140.91,87.65a121.16,121.16,0,0,1-32.74,83H0v-159l.52-.24A132.87,132.87,0,0,1,12.93,6.57a130.85,130.85,0,0,1,15.13-4c3.32-.66,6.64-1.2,10-1.61Q39.57.76,41.1.61c.59-.06,1.18-.12,1.77-.16l.89-.07L45.5.26,47.06.17C48.15.11,49.23.07,50.32,0h.14l1.6,0h2c1.32,0,2.64,0,4,.07,2.13.06,4.25.19,6.36.37q4.45.36,8.87,1l1.64.26c.7.11,1.39.23,2.08.36l2.08.4q2.1.41,4.17.9l2,.49c1.42.35,2.84.73,4.25,1.14q3,.84,5.89,1.84c.73.24,1.45.5,2.17.75,1.22.44,2.43.9,3.63,1.37a129.71,129.71,0,0,1,17.35,8.35A121.3,121.3,0,0,1,140.91,87.65Z"/><path class="cls-4" d="M42.66,85A30.33,30.33,0,0,1,0,112.73V57.32A30.33,30.33,0,0,1,42.66,85Z"/></g></g></g></g></g></g></svg>