<svg xmlns="http://www.w3.org/2000/svg" viewBox="0 0 204.65 60"><defs><style>.cls-1{fill:#1d1d1b;}.cls-2{fill:#4d648e;}</style></defs><g id="Layer_2" data-name="Layer 2"><g id="Brand_Name_color_dark_" data-name="Brand Name (color dark)"><path class="cls-1" d="M52.84,53.9v5.84H50.67V45.37h2.46a11.05,11.05,0,0,1,2.73.25,3.6,3.6,0,0,1,1.64,1,4.08,4.08,0,0,1,1.23,3,4,4,0,0,1-1.32,3.13,5.22,5.22,0,0,1-3.56,1.15Zm0-2h.81c2,0,3-.77,3-2.3s-1-2.22-3.08-2.22h-.72Z"/><path class="cls-1" d="M66,45.37V59.74H63.83V45.37Z"/><path class="cls-1" d="M82.92,46.13V48.7A6,6,0,0,0,79,47.13a5,5,0,0,0-3.73,1.59,5.33,5.33,0,0,0-1.52,3.87A5.19,5.19,0,0,0,75.3,56.4,5,5,0,0,0,79,58,4.74,4.74,0,0,0,81,57.59a6.12,6.12,0,0,0,.92-.51,9.87,9.87,0,0,0,1-.76v2.62A7.83,7.83,0,0,1,79,60a7.22,7.22,0,0,1-5.26-2.15,7.12,7.12,0,0,1-2.17-5.23,7.38,7.38,0,0,1,1.81-4.9,7.22,7.22,0,0,1,5.78-2.63A7.42,7.42,0,0,1,82.92,46.13Z"/><path class="cls-1" d="M92.48,47.4V59.74H90.32V47.4H87v-2h8.77v2Z"/><path class="cls-1" d="M102.74,45.37V54a4.7,4.7,0,0,0,.61,2.71,3.23,3.23,0,0,0,5.09,0A4.7,4.7,0,0,0,109,54V45.37h2.17v9.25a5.19,5.19,0,0,1-1.41,3.74A5.26,5.26,0,0,1,105.89,60a5.22,5.22,0,0,1-5.32-5.38V45.37Z"/><path class="cls-1" d="M122.38,53.61l4.45,6.13h-2.65l-4.11-5.89h-.39v5.89h-2.17V45.37h2.54a6.34,6.34,0,0,1,4.12,1.07,3.92,3.92,0,0,1,1.39,3.14,4.12,4.12,0,0,1-.87,2.63A3.89,3.89,0,0,1,122.38,53.61ZM119.68,52h.69c2,0,3.08-.78,3.08-2.35s-1-2.21-3-2.21h-.77Z"/><path class="cls-1" d="M139.78,47.4H134v3.46h5.59v2H134v4.8h5.76v2h-7.93V45.37h7.93Z"/><path class="cls-1" d="M153.61,47.5l-1.76,1a3.09,3.09,0,0,0-.94-1.12,2.18,2.18,0,0,0-1.2-.29,2.24,2.24,0,0,0-1.5.51,1.56,1.56,0,0,0-.6,1.26c0,.71.53,1.27,1.57,1.7l1.43.59a6.07,6.07,0,0,1,2.56,1.72,3.91,3.91,0,0,1,.81,2.5,4.39,4.39,0,0,1-1.32,3.28A4.55,4.55,0,0,1,149.35,60a4.36,4.36,0,0,1-3.08-1.12,5,5,0,0,1-1.5-3.12l2.19-.48a3.9,3.9,0,0,0,.52,1.75,2.48,2.48,0,0,0,3.64.25,2.34,2.34,0,0,0,.67-1.72,2.65,2.65,0,0,0-.11-.77,1.88,1.88,0,0,0-.37-.64,2.65,2.65,0,0,0-.63-.55,7.24,7.24,0,0,0-.93-.49l-1.39-.57q-3-1.24-3-3.65a3.46,3.46,0,0,1,1.24-2.71,4.46,4.46,0,0,1,3.08-1.09A4.3,4.3,0,0,1,153.61,47.5Z"/><path class="cls-2" d="M27.07,23.41c0,5.24-5.77,8.38-15.3,8.38H3.19A2.93,2.93,0,0,1,0,29.08c0-.86.62-2.34.62-3.2V7.2C.62,6.35,0,4.87,0,4A2.93,2.93,0,0,1,3.19,1.3h8.53c9,0,14.87,2.81,14.87,7.86,0,3-2.14,5.29-5.91,6.57-.43.15-.43.34,0,.48C24.78,17.59,27.07,20.07,27.07,23.41ZM10.63,13.88a.88.88,0,0,0,.76.9,16.79,16.79,0,0,0,1.71.1c2.2,0,2.67-2.24,2.53-5.58-.14-3.86-1.33-5.57-3.86-5.57-.1,0-.24,0-.38,0a.89.89,0,0,0-.76.91Zm0,14.48a.89.89,0,0,0,.76.91,7.91,7.91,0,0,0,1.24.09c2.57,0,3.62-1.9,3.48-6.19C16,20,15.06,17,11.39,17a.94.94,0,0,0-.76,1Z"/><path class="cls-2" d="M28.83,29.08c0-.86.62-2.34.62-3.2V7.3c0-1-.67-2.24-.67-3.38a3,3,0,0,1,2.81-3l5.1-.85C38-.18,39,.34,39,1.53V25.88c0,.86.62,2.34.62,3.2a2.94,2.94,0,0,1-3.2,2.71H32A2.93,2.93,0,0,1,28.83,29.08Z"/><path class="cls-2" d="M47.41,32.17c-3.86,0-5.57-2.09-5.57-5.38v-12c0-1-.67-2.24-.67-3.38A3,3,0,0,1,44,8.4l5.1-.86c1.33-.24,2.29.28,2.29,1.47V22c0,2.82.57,4,1.85,4a2.33,2.33,0,0,0,2.24-2.24V14.83c0-1-.66-2.24-.66-3.39a3,3,0,0,1,2.81-3l5.1-.85C64,7.35,65,7.87,65,9.06V25.88c0,.86.62,2.34.62,3.2a2.94,2.94,0,0,1-3.2,2.71H58A3,3,0,0,1,54.84,29l0-.19V28.7c.1-.58-.09-.67-.47-.29C52.46,30.32,49.79,32.17,47.41,32.17Z"/><path class="cls-2" d="M81.67,22.21a11.19,11.19,0,0,0,6.53-2.33c.38-.29.62-.1.62.48,0,6.72-5.1,11.91-11.34,11.91S66.9,26.93,66.9,19.93c0-6.1,3.52-12.49,10.63-12.49,3.76,0,6.76,1.81,7.91,4.48,1.28,3,.09,5.53-3.44,5.53H75.33c-.33,0-.52.19-.38.52A6.94,6.94,0,0,0,81.67,22.21ZM78,15.35a.63.63,0,0,0,.58-.66c0-1.53-.29-5.58-2.48-5.58-1.53,0-2.19,3.1-1.81,6.1a.56.56,0,0,0,.66.48Z"/><path class="cls-2" d="M104,7.49c6.81,0,11.44,5,11.44,12.39s-4.82,12.39-12.2,12.39a8.45,8.45,0,0,1-5.48-1.57.72.72,0,0,0-.86,0,5.93,5.93,0,0,1-3.53,1.09c-1.9,0-2.9-1.38-2.9-3.9V7.3c0-1-.67-2.24-.67-3.38a3,3,0,0,1,2.81-3l5.1-.85C99.06-.18,100,.34,100,1.53V7.87c0,.33.19.43.52.29A8.08,8.08,0,0,1,104,7.49Zm1.1,12.1c-.77-7.14-1.63-10.24-3.63-10-1.09.15-1.38,1.39-1.47,3.82V22c0,5.71,1.71,8.86,3.52,8.62S105.88,26.55,105.12,19.59Z"/><path class="cls-2" d="M131.18,22.21a11.21,11.21,0,0,0,6.53-2.33c.38-.29.62-.1.62.48,0,6.72-5.1,11.91-11.34,11.91s-10.58-5.34-10.58-12.34c0-6.1,3.52-12.49,10.62-12.49,3.77,0,6.77,1.81,7.91,4.48,1.29,3,.1,5.53-3.43,5.53h-6.67c-.33,0-.52.19-.38.52A6.94,6.94,0,0,0,131.18,22.21Zm-3.72-6.86a.62.62,0,0,0,.57-.66c0-1.53-.28-5.58-2.47-5.58-1.53,0-2.2,3.1-1.81,6.1a.56.56,0,0,0,.66.48Z"/><path class="cls-2" d="M155.29,7.49c2.52,0,3.53,2,3.67,4.24.33,5.81-5.34,6-9.44,6.58v7.57c0,.86.62,2.34.62,3.2A2.93,2.93,0,0,1,147,31.79h-4.38a2.94,2.94,0,0,1-3.2-2.71c0-.86.62-2.34.62-3.2V14.78c0-1-.66-2.24-.66-3.38a3,3,0,0,1,2.81-3l3.9-.67c2.34-.38,3.48.71,3.48,3.43v4.72c0,.43.38.47.38,0C150,10.16,151.76,7.49,155.29,7.49Z"/><path class="cls-2" d="M175.73,7.49c2.52,0,3.53,2,3.67,4.24.33,5.81-5.34,6-9.44,6.58v7.57c0,.86.62,2.34.62,3.2a2.93,2.93,0,0,1-3.19,2.71H163a2.94,2.94,0,0,1-3.2-2.71c0-.86.62-2.34.62-3.2V14.78c0-1-.66-2.24-.66-3.38a3,3,0,0,1,2.81-3l3.9-.67c2.34-.38,3.48.71,3.48,3.43v4.72c0,.43.38.47.38,0C170.44,10.16,172.2,7.49,175.73,7.49Z"/><path class="cls-2" d="M195.36,12.83c0-3.2,1.95-5.34,4.91-5.34s4.38,1.57,4.38,6.53c0,8.91-10.48,25.87-19.3,25.87-2.57,0-4.71-.85-5-3.62-.28-2.38,1.15-4,3.77-4,2.24,0,3.86.81,5.52.81a4.43,4.43,0,0,0,2.48-.77c.48-.28.38-.57-.19-.61a9.54,9.54,0,0,1-8.43-7.49l-2.34-9.62c-.43-1.72-1.28-2.67-1.52-4.34C179.4,8.82,180,8,181.54,8h6.58c1.38,0,2,.28,2.28,1.47L195.07,28c.15.57.43.62.67.1C198.22,22.83,195.36,16.31,195.36,12.83Z"/></g></g></svg>