<svg xmlns="http://www.w3.org/2000/svg" viewBox="0 0 287.68 60.45"><defs><style>.cls-1{fill:#273655;}.cls-2{fill:#4d648e;}.cls-3{fill:#1e1f26;}.cls-4{fill:#1d1d1b;}</style></defs><g id="Layer_2" data-name="Layer 2"><g id="Full_Logo_color_dark_" data-name="Full Logo (color dark)"><g id="Sphere"><path class="cls-1" d="M287.68,31.74a28.72,28.72,0,0,1-56,9,28.36,28.36,0,0,1-1.45-9,28.72,28.72,0,1,1,57.44,0Z"/><path class="cls-2" d="M278.24,22.4a26.9,26.9,0,0,1-46.55,18.36,28.36,28.36,0,0,1-1.45-9,28.72,28.72,0,0,1,43.05-24.9A26.81,26.81,0,0,1,278.24,22.4Z"/><circle class="cls-3" cx="249.8" cy="21.82" r="6.71"/></g><path class="cls-4" d="M92.31,54.3v5.88H90.13V45.7H92.6a11,11,0,0,1,2.75.26,3.53,3.53,0,0,1,1.65.95A4.13,4.13,0,0,1,98.25,50a4,4,0,0,1-1.33,3.15,5.31,5.31,0,0,1-3.59,1.16Zm0-2h.82c2,0,3-.77,3-2.31s-1-2.24-3.1-2.24h-.73Z"/><path class="cls-4" d="M105.56,45.7V60.18h-2.18V45.7Z"/><path class="cls-4" d="M122.62,46.48v2.58a6,6,0,0,0-3.92-1.59,5,5,0,0,0-3.76,1.61A5.42,5.42,0,0,0,113.4,53a5.28,5.28,0,0,0,1.54,3.84,5.07,5.07,0,0,0,3.77,1.57,4.63,4.63,0,0,0,2-.38,5.33,5.33,0,0,0,.93-.5,11.88,11.88,0,0,0,1-.77v2.64a7.85,7.85,0,0,1-3.94,1.06A7.43,7.43,0,0,1,111.2,53,7.45,7.45,0,0,1,113,48.07a7.53,7.53,0,0,1,9.59-1.59Z"/><path class="cls-4" d="M132.25,47.76V60.18h-2.18V47.76h-3.33V45.7h8.83v2.06Z"/><path class="cls-4" d="M142.59,45.7v8.72a4.74,4.74,0,0,0,.61,2.72,3.25,3.25,0,0,0,5.12,0,4.65,4.65,0,0,0,.61-2.72V45.7h2.19V55a5.22,5.22,0,0,1-1.43,3.77,5.51,5.51,0,0,1-7.86,0A5.22,5.22,0,0,1,140.4,55V45.7Z"/><path class="cls-4" d="M162.37,54l4.48,6.17h-2.67L160,54.25h-.39v5.93h-2.18V45.7H160a6.38,6.38,0,0,1,4.14,1.08A4,4,0,0,1,165.58,50a4.14,4.14,0,0,1-.88,2.64A4,4,0,0,1,162.37,54Zm-2.72-1.66h.7c2.06,0,3.1-.79,3.1-2.37s-1-2.22-3-2.22h-.78Z"/><path class="cls-4" d="M179.9,47.76h-5.81v3.47h5.64v2.06h-5.64v4.84h5.81v2h-8V45.7h8Z"/><path class="cls-4" d="M193.83,47.85l-1.77,1a3.06,3.06,0,0,0-.95-1.13,2.19,2.19,0,0,0-1.21-.3,2.27,2.27,0,0,0-1.51.52,1.6,1.6,0,0,0-.6,1.28c0,.7.53,1.27,1.58,1.7l1.44.59a6.12,6.12,0,0,1,2.58,1.75,3.92,3.92,0,0,1,.82,2.51,4.46,4.46,0,0,1-1.33,3.31,4.61,4.61,0,0,1-3.33,1.31,4.44,4.44,0,0,1-3.12-1.12,5.19,5.19,0,0,1-1.51-3.14l2.22-.49a3.74,3.74,0,0,0,.52,1.76,2.49,2.49,0,0,0,3.67.25A2.34,2.34,0,0,0,192,56a2.65,2.65,0,0,0-.11-.77,1.92,1.92,0,0,0-.37-.65,2.93,2.93,0,0,0-.64-.55,5.85,5.85,0,0,0-.94-.49l-1.4-.58q-3-1.26-3-3.68a3.49,3.49,0,0,1,1.25-2.72,4.48,4.48,0,0,1,3.1-1.11A4.34,4.34,0,0,1,193.83,47.85Z"/><path class="cls-2" d="M27.27,23.58c0,5.28-5.81,8.45-15.41,8.45H3.22A3,3,0,0,1,0,29.29c0-.86.62-2.35.62-3.22V7.26C.62,6.39,0,4.9,0,4A3,3,0,0,1,3.22,1.3h8.59c9,0,15,2.84,15,7.93,0,3-2.16,5.32-6,6.62-.43.14-.43.34,0,.48C25,17.72,27.27,20.22,27.27,23.58ZM10.71,14a.89.89,0,0,0,.76.91,17.21,17.21,0,0,0,1.73.1c2.21,0,2.69-2.26,2.55-5.62-.15-3.89-1.35-5.62-3.89-5.62-.1,0-.24,0-.39,0a.89.89,0,0,0-.76.91Zm0,14.59a.88.88,0,0,0,.76.91,8,8,0,0,0,1.25.1c2.59,0,3.65-1.92,3.51-6.24-.1-3.17-1.06-6.24-4.76-6.24a.94.94,0,0,0-.76,1Z"/><path class="cls-2" d="M29,29.29c0-.86.63-2.35.63-3.22V7.35c0-1-.68-2.25-.68-3.41a3,3,0,0,1,2.84-3L37,.06c1.35-.24,2.31.28,2.31,1.48V26.07c0,.87.62,2.36.62,3.22A3,3,0,0,1,36.68,32H32.26A3,3,0,0,1,29,29.29Z"/><path class="cls-2" d="M47.76,32.41c-3.88,0-5.61-2.11-5.61-5.42V14.89c0-1-.67-2.26-.67-3.41a3,3,0,0,1,2.83-3l5.13-.87c1.35-.24,2.31.29,2.31,1.49V22.19c0,2.83.58,4,1.87,4a2.36,2.36,0,0,0,2.26-2.26v-9c0-1-.67-2.26-.67-3.41a3,3,0,0,1,2.83-3l5.13-.87c1.35-.24,2.31.29,2.31,1.49V26.07c0,.87.62,2.36.62,3.22A3,3,0,0,1,62.89,32H58.47a3,3,0,0,1-3.22-2.83l0-.2v-.09c.1-.58-.09-.68-.48-.29C52.85,30.54,50.17,32.41,47.76,32.41Z"/><path class="cls-2" d="M82.28,22.38A11.31,11.31,0,0,0,88.86,20c.38-.29.62-.1.62.48,0,6.76-5.14,12-11.43,12S67.4,27.13,67.4,20.07C67.4,13.93,71,7.5,78.1,7.5c3.8,0,6.82,1.82,8,4.51,1.3,3,.1,5.57-3.45,5.57H75.89c-.33,0-.52.19-.38.53A7,7,0,0,0,82.28,22.38Zm-3.74-6.91a.64.64,0,0,0,.57-.68c0-1.53-.29-5.61-2.49-5.61-1.54,0-2.21,3.12-1.83,6.14a.56.56,0,0,0,.67.48Z"/><path class="cls-2" d="M104.79,7.55c6.87,0,11.52,5,11.52,12.48S111.47,32.51,104,32.51a8.48,8.48,0,0,1-5.53-1.59.72.72,0,0,0-.86,0A5.84,5.84,0,0,1,94.09,32c-1.92,0-2.93-1.39-2.93-3.94V7.35c0-1-.67-2.25-.67-3.41a3,3,0,0,1,2.83-3L98.46.06c1.34-.24,2.3.28,2.3,1.48V7.93c0,.34.19.43.53.29A8.14,8.14,0,0,1,104.79,7.55Zm1.11,12.19c-.77-7.2-1.64-10.32-3.65-10-1.11.14-1.39,1.39-1.49,3.84v8.59c0,5.76,1.73,8.93,3.55,8.69S106.67,26.75,105.9,19.74Z"/><path class="cls-2" d="M132.16,22.38A11.26,11.26,0,0,0,138.73,20c.39-.29.63-.1.63.48,0,6.76-5.14,12-11.43,12s-10.66-5.38-10.66-12.44c0-6.14,3.56-12.57,10.71-12.57,3.79,0,6.82,1.82,8,4.51,1.29,3,.09,5.57-3.46,5.57h-6.72c-.34,0-.53.19-.38.53A7,7,0,0,0,132.16,22.38Zm-3.75-6.91a.65.65,0,0,0,.58-.68c0-1.53-.29-5.61-2.5-5.61-1.53,0-2.21,3.12-1.82,6.14a.55.55,0,0,0,.67.48Z"/><path class="cls-2" d="M156.45,7.55c2.54,0,3.55,2,3.69,4.27.34,5.85-5.38,6-9.5,6.62v7.63c0,.87.62,2.36.62,3.22A3,3,0,0,1,148,32h-4.41a3,3,0,0,1-3.22-2.74c0-.86.63-2.35.63-3.22V14.89c0-1-.68-2.26-.68-3.41a3,3,0,0,1,2.84-3l3.93-.67c2.35-.39,3.51.72,3.51,3.45V16c0,.44.38.48.38,0C151.12,10.23,152.89,7.55,156.45,7.55Z"/><path class="cls-2" d="M177,7.55c2.54,0,3.55,2,3.7,4.27.33,5.85-5.38,6-9.51,6.62v7.63c0,.87.62,2.36.62,3.22A3,3,0,0,1,168.64,32h-4.42A3,3,0,0,1,161,29.29c0-.86.62-2.35.62-3.22V14.89c0-1-.67-2.26-.67-3.41a3,3,0,0,1,2.83-3l3.94-.67c2.35-.39,3.5.72,3.5,3.45V16c0,.44.38.48.38,0C171.71,10.23,173.49,7.55,177,7.55Z"/><path class="cls-2" d="M196.82,12.92c0-3.21,2-5.37,4.94-5.37s4.42,1.58,4.42,6.57c0,9-10.56,26.07-19.44,26.07-2.6,0-4.76-.87-5.09-3.65-.29-2.4,1.15-4,3.79-4,2.26,0,3.89.81,5.57.81a4.48,4.48,0,0,0,2.49-.77c.48-.28.39-.57-.19-.62a9.6,9.6,0,0,1-8.49-7.54l-2.36-9.69c-.43-1.73-1.29-2.69-1.53-4.37-.19-1.49.43-2.35,2-2.35h6.62c1.39,0,2,.28,2.3,1.48l4.71,18.68c.14.57.43.62.67.09C199.7,23,196.82,16.43,196.82,12.92Z"/></g></g></svg>