<svg xmlns="http://www.w3.org/2000/svg" viewBox="0 0 286.39 60.18"><defs><style>.cls-1{fill:#fff;}</style></defs><g id="Layer_2" data-name="Layer 2"><g id="Full_Logo_full_white_" data-name="Full Logo (full white)"><path class="cls-1" d="M272.07,6.82a28.59,28.59,0,1,0,14.32,24.77A28.39,28.39,0,0,0,272.07,6.82ZM248.68,28.4a6.68,6.68,0,1,1,6.68-6.68A6.68,6.68,0,0,1,248.68,28.4Z"/><path class="cls-1" d="M91.9,54.06v5.85H89.73V45.5h2.46a10.94,10.94,0,0,1,2.73.25,3.77,3.77,0,0,1,1.65,1,4.09,4.09,0,0,1,1.24,3.06,3.94,3.94,0,0,1-1.33,3.14,5.23,5.23,0,0,1-3.57,1.16Zm0-2h.81c2,0,3-.77,3-2.3s-1-2.24-3.09-2.24H91.9Z"/><path class="cls-1" d="M105.09,45.5V59.91h-2.17V45.5Z"/><path class="cls-1" d="M122.07,46.27v2.57a6.05,6.05,0,0,0-3.9-1.58,4.94,4.94,0,0,0-3.74,1.6,5.38,5.38,0,0,0-1.53,3.88,5.27,5.27,0,0,0,1.53,3.83,5,5,0,0,0,3.75,1.56,4.61,4.61,0,0,0,1.95-.38,5.33,5.33,0,0,0,.93-.5,10.06,10.06,0,0,0,1-.77v2.63a7.78,7.78,0,0,1-3.92,1.06,7.41,7.41,0,0,1-7.45-7.4,7.42,7.42,0,0,1,1.82-4.91,7.27,7.27,0,0,1,5.8-2.64A7.39,7.39,0,0,1,122.07,46.27Z"/><path class="cls-1" d="M131.66,47.54V59.91h-2.18V47.54h-3.31v-2H135v2Z"/><path class="cls-1" d="M142,45.5v8.67a4.85,4.85,0,0,0,.6,2.72,3.25,3.25,0,0,0,5.11,0,4.75,4.75,0,0,0,.61-2.72V45.5h2.17v9.28A5.19,5.19,0,0,1,149,58.53a5.34,5.34,0,0,1-9.25-3.75V45.5Z"/><path class="cls-1" d="M161.64,53.77l4.47,6.14h-2.66L159.33,54h-.39v5.9h-2.18V45.5h2.55a6.43,6.43,0,0,1,4.13,1.07,4,4,0,0,1,1.4,3.16,4.13,4.13,0,0,1-.88,2.63A4,4,0,0,1,161.64,53.77Zm-2.7-1.65h.69q3.09,0,3.09-2.37c0-1.47-1-2.21-3-2.21h-.77Z"/><path class="cls-1" d="M179.09,47.54h-5.78V51h5.61v2h-5.61v4.82h5.78v2h-8V45.5h8Z"/><path class="cls-1" d="M193,47.64l-1.76,1a3.1,3.1,0,0,0-.95-1.12,2.48,2.48,0,0,0-2.7.22,1.57,1.57,0,0,0-.6,1.27c0,.7.52,1.27,1.57,1.7l1.44.58a6.19,6.19,0,0,1,2.56,1.74,3.9,3.9,0,0,1,.82,2.51A4.41,4.41,0,0,1,192,58.86a4.51,4.51,0,0,1-3.31,1.31,4.39,4.39,0,0,1-3.1-1.12,5.08,5.08,0,0,1-1.51-3.13l2.21-.48a3.73,3.73,0,0,0,.52,1.75,2.25,2.25,0,0,0,2,.94,2.29,2.29,0,0,0,1.69-.68,2.36,2.36,0,0,0,.67-1.73A2.65,2.65,0,0,0,191,55a1.88,1.88,0,0,0-.37-.64,2.71,2.71,0,0,0-.64-.55,5.72,5.72,0,0,0-.93-.49l-1.39-.58q-3-1.24-3-3.66A3.46,3.46,0,0,1,186,46.32a4.47,4.47,0,0,1,3.09-1.1A4.3,4.3,0,0,1,193,47.64Z"/><path class="cls-1" d="M27.15,23.47c0,5.26-5.79,8.41-15.35,8.41H3.2A2.94,2.94,0,0,1,0,29.16c0-.86.62-2.34.62-3.2V7.23C.62,6.37,0,4.88,0,4A2.94,2.94,0,0,1,3.2,1.3h8.56c9,0,14.91,2.82,14.91,7.88,0,3-2.15,5.31-5.93,6.6-.43.14-.43.33,0,.48C24.85,17.64,27.15,20.13,27.15,23.47ZM10.66,13.92a.88.88,0,0,0,.76.9,17,17,0,0,0,1.72.1c2.2,0,2.68-2.25,2.54-5.59-.15-3.87-1.34-5.59-3.88-5.59-.09,0-.23,0-.38,0a.89.89,0,0,0-.76.91Zm0,14.52a.89.89,0,0,0,.76.91,8,8,0,0,0,1.25.1c2.58,0,3.63-1.91,3.48-6.21-.09-3.16-1-6.22-4.73-6.22a.94.94,0,0,0-.76,1Z"/><path class="cls-1" d="M28.91,29.16c0-.86.62-2.34.62-3.2V7.32c0-1-.67-2.25-.67-3.39a3,3,0,0,1,2.82-3L36.8.06c1.34-.24,2.29.28,2.29,1.48V26c0,.86.62,2.34.62,3.2a2.94,2.94,0,0,1-3.2,2.72h-4.4A2.94,2.94,0,0,1,28.91,29.16Z"/><path class="cls-1" d="M47.55,32.27c-3.87,0-5.59-2.11-5.59-5.4v-12c0-1-.67-2.24-.67-3.39a3,3,0,0,1,2.82-3l5.11-.86c1.34-.24,2.3.29,2.3,1.48V22.09c0,2.82.57,4,1.86,4a2.33,2.33,0,0,0,2.25-2.24V14.87c0-1-.67-2.25-.67-3.39a3,3,0,0,1,2.82-3l5.11-.86c1.34-.24,2.3.28,2.3,1.48V26c0,.86.62,2.34.62,3.2a3,3,0,0,1-3.21,2.72H58.21A3,3,0,0,1,55,29.07l0-.2v-.09c.1-.58-.09-.67-.47-.29C52.62,30.4,49.94,32.27,47.55,32.27Z"/><path class="cls-1" d="M81.91,22.28a11.22,11.22,0,0,0,6.55-2.34c.38-.29.62-.1.62.47,0,6.74-5.11,12-11.37,12S67.1,27,67.1,20c0-6.12,3.53-12.53,10.65-12.53,3.78,0,6.79,1.82,7.94,4.5,1.29,3,.09,5.54-3.44,5.54h-6.7c-.33,0-.52.19-.38.53A7,7,0,0,0,81.91,22.28ZM78.18,15.4a.64.64,0,0,0,.58-.67c0-1.53-.29-5.59-2.49-5.59-1.53,0-2.2,3.1-1.81,6.11a.55.55,0,0,0,.66.48Z"/><path class="cls-1" d="M104.32,7.51c6.84,0,11.47,5,11.47,12.43S111,32.36,103.56,32.36a8.53,8.53,0,0,1-5.5-1.57.69.69,0,0,0-.86,0,5.93,5.93,0,0,1-3.53,1.09c-1.92,0-2.92-1.38-2.92-3.91V7.32c0-1-.67-2.25-.67-3.39a3,3,0,0,1,2.82-3L98,.06c1.33-.24,2.29.28,2.29,1.48V7.89c0,.34.19.43.52.29A8.12,8.12,0,0,1,104.32,7.51Zm1.1,12.14c-.76-7.17-1.62-10.27-3.63-10-1.1.15-1.38,1.39-1.48,3.83V22c0,5.74,1.72,8.89,3.54,8.65S106.19,26.63,105.42,19.65Z"/><path class="cls-1" d="M131.56,22.28a11.19,11.19,0,0,0,6.55-2.34c.38-.29.62-.1.62.47,0,6.74-5.11,12-11.37,12S116.75,27,116.75,20c0-6.12,3.54-12.53,10.66-12.53,3.77,0,6.78,1.82,7.93,4.5,1.29,3,.09,5.54-3.44,5.54h-6.69c-.34,0-.53.19-.38.53A7,7,0,0,0,131.56,22.28Zm-3.72-6.88a.64.64,0,0,0,.57-.67c0-1.53-.29-5.59-2.49-5.59-1.53,0-2.19,3.1-1.81,6.11a.56.56,0,0,0,.67.48Z"/><path class="cls-1" d="M155.74,7.51c2.54,0,3.54,2,3.68,4.26.34,5.83-5.35,6-9.46,6.59V26c0,.86.62,2.34.62,3.2a2.94,2.94,0,0,1-3.2,2.72H143a2.94,2.94,0,0,1-3.2-2.72c0-.86.62-2.34.62-3.2V14.82c0-1-.67-2.24-.67-3.39a3,3,0,0,1,2.82-3l3.92-.67c2.34-.38,3.49.72,3.49,3.44v4.73c0,.43.38.48.38.05C150.44,10.19,152.21,7.51,155.74,7.51Z"/><path class="cls-1" d="M176.25,7.51c2.53,0,3.53,2,3.67,4.26.34,5.83-5.35,6-9.46,6.59V26c0,.86.62,2.34.62,3.2a2.94,2.94,0,0,1-3.2,2.72h-4.39a3,3,0,0,1-3.21-2.72c0-.86.62-2.34.62-3.2V14.82c0-1-.66-2.24-.66-3.39a3,3,0,0,1,2.81-3L167,7.75c2.35-.38,3.49.72,3.49,3.44v4.73c0,.43.38.48.38.05C170.94,10.19,172.71,7.51,176.25,7.51Z"/><path class="cls-1" d="M195.93,12.86c0-3.2,2-5.35,4.93-5.35s4.39,1.58,4.39,6.55C205.25,23,194.74,40,185.9,40c-2.58,0-4.73-.86-5.07-3.63-.29-2.39,1.15-4,3.78-4,2.24,0,3.87.81,5.54.81a4.54,4.54,0,0,0,2.49-.76c.47-.29.38-.58-.19-.62A9.56,9.56,0,0,1,184,24.33l-2.35-9.65c-.43-1.72-1.29-2.68-1.52-4.35-.2-1.48.42-2.34,1.95-2.34h6.6c1.39,0,2,.29,2.29,1.48l4.69,18.59c.14.58.43.62.67.1C198.8,22.9,195.93,16.35,195.93,12.86Z"/></g></g></svg>