<?xml version="1.0" encoding="UTF-8"?>
<svg id="Layer_2" data-name="Layer 2" xmlns="http://www.w3.org/2000/svg" xmlns:xlink="http://www.w3.org/1999/xlink" viewBox="0 0 233.13 50.64">
  <defs>
    <style>
      .cls-1 {
        clip-path: url(#clippath);
      }

      .cls-2 {
        fill: none;
      }

      .cls-2, .cls-3, .cls-4, .cls-5, .cls-6, .cls-7 {
        stroke-width: 0px;
      }

      .cls-3 {
        fill: #1a1f20;
      }

      .cls-4 {
        fill: #648999;
      }

      .cls-5 {
        fill: #6492a9;
      }

      .cls-6 {
        fill: #344656;
      }

      .cls-7 {
        fill: #394a59;
      }
    </style>
    <clipPath id="clippath">
      <circle id="Mask" class="cls-2" cx="207.81" cy="25.32" r="25.32"/>
    </clipPath>
  </defs>
  <g id="_4._Identité_1_5_" data-name="4. Identité (1/5)">
    <g>
      <g id="Sphere">
        <g class="cls-1">
          <circle id="Shadow" class="cls-7" cx="207.81" cy="25.32" r="25.32"/>
          <circle id="Body" class="cls-4" cx="200.51" cy="17.32" r="23.51"/>
          <circle id="Hole" class="cls-3" cx="199.08" cy="16.14" r="6.2"/>
        </g>
      </g>
      <g>
        <path class="cls-5" d="M22.33,26.53c0,4.32-4.76,6.92-12.62,6.92H2.63c-1.49,0-2.63-.98-2.63-2.24,0-.71.51-1.93.51-2.63v-15.41c0-.71-.51-1.93-.51-2.63,0-1.26,1.14-2.24,2.63-2.24h7.04c7.39,0,12.26,2.32,12.26,6.49,0,2.48-1.77,4.36-4.87,5.42-.35.12-.35.27,0,.39,3.38,1.14,5.27,3.18,5.27,5.94ZM8.76,18.67c0,.39.28.71.63.75.39.04.9.08,1.42.08,1.81,0,2.2-1.85,2.08-4.6-.12-3.18-1.1-4.6-3.18-4.6-.08,0-.2.04-.31.04-.35.04-.63.35-.63.75v7.59ZM8.76,30.61c0,.39.28.71.63.75.28.04.59.08,1.02.08,2.12,0,2.99-1.57,2.87-5.11-.08-2.59-.86-5.11-3.89-5.11-.35.04-.63.39-.63.79v8.61Z"/>
        <path class="cls-5" d="M23.78,31.2c0-.71.51-1.93.51-2.63v-15.33c0-.83-.55-1.85-.55-2.79,0-1.38.94-2.24,2.32-2.48l4.21-.71c1.1-.2,1.89.24,1.89,1.22v20.09c0,.71.51,1.93.51,2.63,0,1.26-1.14,2.24-2.63,2.24h-3.62c-1.49,0-2.63-.98-2.63-2.24Z"/>
        <path class="cls-5" d="M39.11,33.76c-3.18,0-4.6-1.73-4.6-4.44v-9.91c0-.83-.55-1.85-.55-2.79,0-1.38.94-2.24,2.32-2.48l4.21-.71c1.1-.2,1.89.24,1.89,1.22v10.73c0,2.32.47,3.3,1.53,3.26.98-.08,1.85-.83,1.85-1.85v-7.35c0-.83-.55-1.85-.55-2.79,0-1.38.94-2.24,2.32-2.48l4.21-.71c1.1-.2,1.89.24,1.89,1.22v13.88c0,.71.51,1.93.51,2.63,0,1.26-1.14,2.24-2.63,2.24h-3.62c-1.38,0-2.63-.87-2.63-2.32l.04-.16v-.08c.08-.47-.08-.55-.39-.24-1.61,1.57-3.81,3.11-5.78,3.11Z"/>
        <path class="cls-5" d="M67.36,25.54c1.77,0,3.7-.67,5.39-1.93.31-.24.51-.08.51.39,0,5.54-4.21,9.83-9.36,9.83s-8.73-4.4-8.73-10.18c0-5.03,2.91-10.3,8.77-10.3,3.1,0,5.58,1.49,6.52,3.7,1.06,2.48.08,4.56-2.83,4.56h-5.5c-.28,0-.43.16-.31.43.9,2.28,3.11,3.5,5.54,3.5ZM64.3,19.88c.31-.04.47-.28.47-.55,0-1.26-.24-4.6-2.04-4.6-1.26,0-1.81,2.55-1.49,5.03.04.28.28.43.55.39l2.52-.27Z"/>
        <path class="cls-5" d="M85.8,13.4c5.62,0,9.43,4.13,9.43,10.22s-3.97,10.22-10.06,10.22c-1.93,0-3.38-.39-4.52-1.3-.24-.16-.47-.16-.71,0-.75.55-1.73.9-2.91.9-1.57,0-2.4-1.14-2.4-3.22V13.24c0-.83-.55-1.85-.55-2.79,0-1.38.94-2.24,2.32-2.48l4.21-.71c1.1-.2,1.89.24,1.89,1.22v5.23c0,.28.16.35.43.24.75-.35,1.69-.55,2.87-.55ZM86.7,23.38c-.63-5.9-1.34-8.45-2.99-8.21-.9.12-1.14,1.14-1.22,3.14v7.04c0,4.72,1.42,7.31,2.91,7.12,1.42-.16,1.93-3.34,1.3-9.08Z"/>
        <path class="cls-5" d="M108.2,25.54c1.77,0,3.69-.67,5.38-1.93.31-.24.51-.08.51.39,0,5.54-4.21,9.83-9.35,9.83s-8.73-4.4-8.73-10.18c0-5.03,2.91-10.3,8.76-10.3,3.11,0,5.58,1.49,6.53,3.7,1.06,2.48.08,4.56-2.83,4.56h-5.5c-.28,0-.43.16-.31.43.9,2.28,3.11,3.5,5.54,3.5ZM105.13,19.88c.31-.04.47-.28.47-.55,0-1.26-.24-4.6-2.04-4.6-1.26,0-1.81,2.55-1.49,5.03.04.28.28.43.55.39l2.52-.27Z"/>
        <path class="cls-5" d="M128.08,13.4c2.08,0,2.91,1.65,3.03,3.5.28,4.79-4.4,4.91-7.78,5.42v6.25c0,.71.51,1.93.51,2.63,0,1.26-1.14,2.24-2.63,2.24h-3.62c-1.49,0-2.63-.98-2.63-2.24,0-.71.51-1.93.51-2.63v-9.16c0-.83-.55-1.85-.55-2.79,0-1.38.94-2.24,2.32-2.48l3.22-.55c1.93-.31,2.87.59,2.87,2.83v3.89c0,.35.31.39.31.04.08-4.76,1.53-6.96,4.44-6.96Z"/>
        <path class="cls-5" d="M144.95,13.4c2.08,0,2.91,1.65,3.03,3.5.28,4.79-4.4,4.91-7.78,5.42v6.25c0,.71.51,1.93.51,2.63,0,1.26-1.14,2.24-2.63,2.24h-3.62c-1.49,0-2.63-.98-2.63-2.24,0-.71.51-1.93.51-2.63v-9.16c0-.83-.55-1.85-.55-2.79,0-1.38.94-2.24,2.32-2.48l3.22-.55c1.93-.31,2.87.59,2.87,2.83v3.89c0,.35.31.39.31.04.08-4.76,1.53-6.96,4.44-6.96Z"/>
        <path class="cls-5" d="M161.14,17.8c0-2.63,1.61-4.4,4.05-4.4s3.62,1.3,3.62,5.39c0,7.35-8.65,21.34-15.92,21.34-2.12,0-3.89-.71-4.17-2.99-.24-1.97.94-3.26,3.11-3.26,1.85,0,3.18.67,4.56.67.63,0,1.3-.16,2.04-.63.39-.24.31-.47-.16-.51-3.1-.28-6.05-2.44-6.96-6.17l-1.93-7.94c-.35-1.42-1.06-2.2-1.26-3.58-.16-1.22.35-1.93,1.61-1.93h5.42c1.14,0,1.65.24,1.89,1.22l3.85,15.29c.12.47.35.51.55.08,2.04-4.32-.31-9.71-.31-12.58Z"/>
      </g>
      <g>
        <path class="cls-6" d="M90.56,50.14c-.55-.14-1.02-.34-1.4-.58v-1.21h.1c.4.29.86.52,1.38.68.53.17,1.04.25,1.55.25s.93-.07,1.26-.21c.34-.14.58-.32.74-.55.16-.23.24-.47.24-.74s-.07-.49-.22-.67c-.14-.18-.4-.35-.76-.49-.36-.14-.87-.28-1.52-.4-.99-.19-1.72-.48-2.19-.88s-.7-.92-.7-1.57c0-.44.13-.84.38-1.2s.61-.65,1.08-.86c.47-.21,1.01-.32,1.63-.32.58,0,1.13.07,1.65.22s.93.33,1.22.56v1.19h-.1c-.33-.27-.75-.48-1.24-.65s-1.01-.25-1.53-.25c-.46,0-.85.06-1.15.19-.3.12-.52.28-.65.48-.13.2-.2.41-.2.64s.06.43.19.6c.12.17.36.32.7.46.34.14.83.27,1.48.39,1.01.19,1.77.49,2.27.9.51.41.76.96.76,1.65,0,.47-.13.9-.38,1.29-.26.39-.64.7-1.14.93-.5.23-1.1.35-1.81.35-.54,0-1.08-.07-1.63-.22Z"/>
        <path class="cls-6" d="M97.29,41.54h8.45v1.07h-8.45v-1.07ZM102.06,50.23h-1.09v-7.83h1.09v7.83Z"/>
        <path class="cls-6" d="M115.85,48.3c-.34.67-.82,1.19-1.44,1.55-.62.36-1.32.53-2.12.53s-1.5-.18-2.12-.53c-.62-.36-1.1-.87-1.44-1.55s-.52-1.48-.52-2.42v-4.35h1.09v4.35c0,.7.12,1.3.35,1.81.23.51.57.91,1.02,1.19s.99.42,1.61.42,1.17-.14,1.62-.42.79-.68,1.02-1.19c.23-.51.35-1.12.35-1.81v-4.35h1.09v4.35c0,.94-.17,1.74-.52,2.42Z"/>
        <path class="cls-6" d="M119.7,41.54h2.48c1.12,0,2.07.17,2.87.52.79.35,1.4.85,1.81,1.5.41.65.62,1.43.62,2.33s-.2,1.67-.61,2.32c-.41.65-1,1.16-1.77,1.5-.77.35-1.71.52-2.8.52h-2.6v-8.7ZM120.23,49.16h2.07c.89,0,1.64-.13,2.25-.39.6-.26,1.06-.63,1.37-1.12.31-.49.46-1.08.46-1.78,0-1.05-.35-1.86-1.05-2.43-.7-.57-1.75-.85-3.15-.85h-1.95l.56-.56v7.68l-.56-.56Z"/>
        <path class="cls-6" d="M131.67,41.54v8.7h-1.09v-8.7h1.09Z"/>
        <path class="cls-6" d="M137,49.78c-.69-.4-1.23-.94-1.63-1.63-.4-.69-.6-1.44-.6-2.27s.2-1.58.6-2.27.94-1.23,1.63-1.63c.69-.4,1.44-.6,2.27-.6s1.59.2,2.27.6,1.23.94,1.63,1.63.6,1.45.6,2.27-.2,1.59-.6,2.27c-.4.69-.94,1.23-1.63,1.63s-1.45.6-2.27.6-1.59-.2-2.27-.6ZM141,48.85c.52-.31.93-.72,1.23-1.24.3-.52.45-1.1.45-1.73s-.15-1.2-.45-1.73c-.3-.52-.71-.94-1.23-1.24-.52-.31-1.1-.46-1.73-.46s-1.2.15-1.73.46c-.52.31-.93.72-1.23,1.24-.3.52-.45,1.1-.45,1.73s.15,1.21.45,1.73c.3.52.71.94,1.23,1.24.52.31,1.1.46,1.73.46s1.21-.15,1.73-.46Z"/>
      </g>
    </g>
  </g>
</svg>