<svg xmlns="http://www.w3.org/2000/svg" viewBox="0 0 230.83 128.65"><defs><style>.cls-1{fill:#4d648e;}.cls-2{fill:#273655;}.cls-3{fill:#1e1f26;}.cls-4{fill:#fff;}</style></defs><g id="Layer_2" data-name="Layer 2"><g id="_401" data-name="401"><path class="cls-1" d="M35.81,66.33H0V51.73L33.49.74h19v51H63v14.6H52.49V82.79H35.81Zm0-42.88h-.23L17.38,51.73H35.81Z"/><path class="cls-1" d="M214.15,20.21,197.69,34.69l-9.85-11.35L214.61.74h16.22V82.79H214.15Z"/><g id="Icon"><path class="cls-2" d="M172.59,42.29A42.26,42.26,0,0,1,90.18,55.53a41.66,41.66,0,0,1-2.13-13.24,42.26,42.26,0,1,1,84.52,0v0Z"/><path class="cls-1" d="M158.69,28.55a39.58,39.58,0,0,1-68.5,27,41.66,41.66,0,0,1-2.13-13.24A42.26,42.26,0,0,1,151.41,5.68,39.44,39.44,0,0,1,158.69,28.55Z"/><circle class="cls-3" cx="116.84" cy="27.69" r="9.87"/></g><path class="cls-4" d="M80.67,128.41v-1.32h-.06a2.92,2.92,0,0,1-1.28,1.19,3.75,3.75,0,0,1-1.62.37,4.45,4.45,0,0,1-1.72-.28,2.46,2.46,0,0,1-1-.78,2.9,2.9,0,0,1-.54-1.22,7.32,7.32,0,0,1-.16-1.61v-5.84h2.61v5.36a3.36,3.36,0,0,0,.36,1.75,1.42,1.42,0,0,0,1.31.58,1.81,1.81,0,0,0,1.54-.63,3.5,3.5,0,0,0,.48-2.08v-5h2.61v9.49Z"/><path class="cls-4" d="M87.61,118.92v1.32h0A3,3,0,0,1,89,119a3.69,3.69,0,0,1,1.61-.38,4.44,4.44,0,0,1,1.72.29,2.53,2.53,0,0,1,1.06.79,3.15,3.15,0,0,1,.54,1.23,7.91,7.91,0,0,1,.15,1.6v5.84h-2.6v-5.36a3.35,3.35,0,0,0-.37-1.75,1.42,1.42,0,0,0-1.31-.58,1.81,1.81,0,0,0-1.54.63,3.53,3.53,0,0,0-.47,2.09v5H85.13v-9.49Z"/><path class="cls-4" d="M95.91,121.84a3,3,0,0,1,.46-1.53,3.15,3.15,0,0,1,1-1,4.57,4.57,0,0,1,1.41-.52,7.54,7.54,0,0,1,1.57-.16,12,12,0,0,1,1.45.1,4.45,4.45,0,0,1,1.34.4,2.63,2.63,0,0,1,1,.82,2.24,2.24,0,0,1,.39,1.38v4.94a9.7,9.7,0,0,0,.07,1.23,2.09,2.09,0,0,0,.26.88h-2.65a3,3,0,0,1-.12-.45,3.55,3.55,0,0,1-.06-.47,3.41,3.41,0,0,1-1.47.9,5.63,5.63,0,0,1-1.73.26,4.63,4.63,0,0,1-1.26-.16,3,3,0,0,1-1-.52,2.32,2.32,0,0,1-.69-.88,2.91,2.91,0,0,1-.25-1.27,2.78,2.78,0,0,1,.29-1.33,2.36,2.36,0,0,1,.73-.83,3.13,3.13,0,0,1,1-.47,9,9,0,0,1,1.17-.25l1.15-.15a6.49,6.49,0,0,0,1-.16,1.82,1.82,0,0,0,.7-.32.72.72,0,0,0,.24-.62,1.42,1.42,0,0,0-.14-.67,1,1,0,0,0-.37-.38,1.29,1.29,0,0,0-.53-.19,4.45,4.45,0,0,0-.65,0,2,2,0,0,0-1.21.33,1.45,1.45,0,0,0-.52,1.1Zm6,1.93a1.2,1.2,0,0,1-.42.23,3.74,3.74,0,0,1-.53.13l-.59.1q-.31,0-.63.09a4.07,4.07,0,0,0-.58.14,2,2,0,0,0-.49.25,1.19,1.19,0,0,0-.34.4,1.21,1.21,0,0,0-.13.6,1.17,1.17,0,0,0,.13.59,1,1,0,0,0,.35.38,1.46,1.46,0,0,0,.51.19,3.08,3.08,0,0,0,.61,0,2.32,2.32,0,0,0,1.19-.25,1.67,1.67,0,0,0,.62-.62,1.88,1.88,0,0,0,.25-.72,5.36,5.36,0,0,0,.05-.59Z"/><path class="cls-4" d="M113,128.41v-1.32h0a2.89,2.89,0,0,1-1.29,1.19,3.68,3.68,0,0,1-1.61.37,4.45,4.45,0,0,1-1.72-.28,2.43,2.43,0,0,1-1.06-.78,3.17,3.17,0,0,1-.54-1.22,8,8,0,0,1-.15-1.61v-5.84h2.6v5.36a3.35,3.35,0,0,0,.37,1.75,1.42,1.42,0,0,0,1.3.58,1.83,1.83,0,0,0,1.55-.63,3.59,3.59,0,0,0,.47-2.08v-5h2.61v9.49Z"/><path class="cls-4" d="M122.66,118.92v1.74h-1.91v4.7a1.29,1.29,0,0,0,.22.89,1.32,1.32,0,0,0,.88.22l.42,0a2.28,2.28,0,0,0,.39-.06v2a7.3,7.3,0,0,1-.74.08h-.79a7,7,0,0,1-1.14-.08,2.59,2.59,0,0,1-1-.32,1.77,1.77,0,0,1-.65-.68,2.41,2.41,0,0,1-.24-1.16v-5.6h-1.58v-1.74h1.58v-2.85h2.61v2.85Z"/><path class="cls-4" d="M126.51,115.3v4.94h.06a3,3,0,0,1,1.27-1.2,3.4,3.4,0,0,1,1.5-.38,4.44,4.44,0,0,1,1.72.29,2.5,2.5,0,0,1,1.05.79,3,3,0,0,1,.55,1.23,7.91,7.91,0,0,1,.15,1.6v5.84H130.2v-5.36a3.36,3.36,0,0,0-.36-1.75,1.42,1.42,0,0,0-1.31-.58,1.81,1.81,0,0,0-1.54.63,3.52,3.52,0,0,0-.48,2.09v5h-2.6V115.3Z"/><path class="cls-4" d="M134.85,121.61a4.33,4.33,0,0,1,1-1.58,4.53,4.53,0,0,1,1.54-1,5.88,5.88,0,0,1,4.05,0,4.48,4.48,0,0,1,1.55,1,4.33,4.33,0,0,1,1,1.58,5.68,5.68,0,0,1,.35,2.06,5.6,5.6,0,0,1-.35,2.06,4.38,4.38,0,0,1-1,1.57,4.19,4.19,0,0,1-1.55,1,6,6,0,0,1-4.05,0,4.23,4.23,0,0,1-1.54-1,4.38,4.38,0,0,1-1-1.57,5.82,5.82,0,0,1-.35-2.06A5.9,5.9,0,0,1,134.85,121.61Zm2.37,3.18a3.06,3.06,0,0,0,.37,1,2,2,0,0,0,.71.69,2.16,2.16,0,0,0,1.1.25,2.22,2.22,0,0,0,1.11-.25,2,2,0,0,0,.72-.69,3.07,3.07,0,0,0,.38-1,6,6,0,0,0,.11-1.12,6.07,6.07,0,0,0-.11-1.12,3,3,0,0,0-.38-1,2.16,2.16,0,0,0-.72-.69,2.22,2.22,0,0,0-1.11-.26,2.16,2.16,0,0,0-1.1.26,2.23,2.23,0,0,0-.71.69,3,3,0,0,0-.37,1,5.32,5.32,0,0,0-.11,1.12A5.25,5.25,0,0,0,137.22,124.79Z"/><path class="cls-4" d="M148.49,118.92v1.76h0a3.37,3.37,0,0,1,.49-.81,3.17,3.17,0,0,1,.72-.65,3.57,3.57,0,0,1,.86-.41,3.11,3.11,0,0,1,1-.15,2.09,2.09,0,0,1,.57.09v2.43l-.44-.07a4.35,4.35,0,0,0-.5,0,2.9,2.9,0,0,0-1.21.23,2.08,2.08,0,0,0-.8.66,2.48,2.48,0,0,0-.43,1,5,5,0,0,0-.13,1.19v4.28H146v-9.49Z"/><path class="cls-4" d="M153.23,117.45V115.3h2.61v2.15Zm2.61,1.47v9.49h-2.61v-9.49Z"/><path class="cls-4" d="M160.09,126.05a1.44,1.44,0,0,0,.45.5,1.81,1.81,0,0,0,.63.28,3.06,3.06,0,0,0,.74.09,2.93,2.93,0,0,0,.58-.06,1.89,1.89,0,0,0,.55-.2,1.35,1.35,0,0,0,.42-.37,1,1,0,0,0,.16-.58c0-.39-.26-.68-.78-.88a17.16,17.16,0,0,0-2.18-.59,10.7,10.7,0,0,1-1.11-.3,3.56,3.56,0,0,1-1-.46,2.3,2.3,0,0,1-.68-.71,2.06,2.06,0,0,1-.26-1.06,2.82,2.82,0,0,1,.36-1.5,2.57,2.57,0,0,1,1-.93,4,4,0,0,1,1.32-.48,8.29,8.29,0,0,1,1.5-.14,7.34,7.34,0,0,1,1.5.15,4.13,4.13,0,0,1,1.3.49,3.09,3.09,0,0,1,.94.93,3.15,3.15,0,0,1,.45,1.46h-2.48a1.12,1.12,0,0,0-.57-1,2.67,2.67,0,0,0-1.21-.26l-.48,0a1.64,1.64,0,0,0-.46.12.9.9,0,0,0-.36.27.7.7,0,0,0-.15.47.73.73,0,0,0,.26.57,2,2,0,0,0,.67.35,6.36,6.36,0,0,0,.94.25l1.09.24c.38.09.75.19,1.11.31a3.94,3.94,0,0,1,1,.49,2.33,2.33,0,0,1,.68.75,2.22,2.22,0,0,1,.26,1.11,3,3,0,0,1-.38,1.57,2.91,2.91,0,0,1-1,1,4.17,4.17,0,0,1-1.39.55,8.4,8.4,0,0,1-1.59.15,7.78,7.78,0,0,1-1.61-.16,4.43,4.43,0,0,1-1.41-.56,3.14,3.14,0,0,1-1-1,3.34,3.34,0,0,1-.43-1.59h2.48A1.37,1.37,0,0,0,160.09,126.05Z"/><path class="cls-4" d="M170.54,126.14a2.38,2.38,0,0,0,1.69.56,2.34,2.34,0,0,0,1.36-.39,1.63,1.63,0,0,0,.7-.84h2.29a4.34,4.34,0,0,1-1.69,2.45,4.93,4.93,0,0,1-2.75.73,5.39,5.39,0,0,1-2-.36,4.16,4.16,0,0,1-1.52-1,4.52,4.52,0,0,1-1-1.58,5.9,5.9,0,0,1-.34-2,5.57,5.57,0,0,1,.35-2,4.8,4.8,0,0,1,1-1.59,4.63,4.63,0,0,1,1.54-1,4.84,4.84,0,0,1,2-.39,4.53,4.53,0,0,1,2.11.47,4.2,4.2,0,0,1,1.48,1.26,5.23,5.23,0,0,1,.84,1.8,6.68,6.68,0,0,1,.18,2.11H169.9A2.68,2.68,0,0,0,170.54,126.14Zm3-5a1.84,1.84,0,0,0-1.42-.51,2.26,2.26,0,0,0-1,.21,1.84,1.84,0,0,0-.66.52,1.92,1.92,0,0,0-.35.66,2.66,2.66,0,0,0-.12.63h4.24A3,3,0,0,0,173.49,121.14Z"/><path class="cls-4" d="M185,127.2a2.78,2.78,0,0,1-1.2,1.11,4,4,0,0,1-1.68.34,4.16,4.16,0,0,1-1.88-.41,3.91,3.91,0,0,1-1.33-1.12,5.15,5.15,0,0,1-.79-1.63,7.1,7.1,0,0,1-.26-1.91,6.65,6.65,0,0,1,.26-1.84,4.73,4.73,0,0,1,.79-1.57,3.9,3.9,0,0,1,3.15-1.51,3.71,3.71,0,0,1,1.61.36,2.75,2.75,0,0,1,1.2,1.06h0V115.3h2.6v13.11h-2.47V127.2Zm-.11-4.69a2.72,2.72,0,0,0-.38-1,2.11,2.11,0,0,0-.69-.67,2,2,0,0,0-1.06-.25,2,2,0,0,0-1.79.93,3,3,0,0,0-.39,1,5.16,5.16,0,0,0-.11,1.13,5.22,5.22,0,0,0,.12,1.1,3.19,3.19,0,0,0,.42,1,2.26,2.26,0,0,0,.71.7,1.94,1.94,0,0,0,1,.26,2,2,0,0,0,1.07-.25,1.9,1.9,0,0,0,.69-.69,3.11,3.11,0,0,0,.37-1,6.12,6.12,0,0,0,.11-1.14A5.93,5.93,0,0,0,184.92,122.51Z"/></g></g></svg>