<svg xmlns="http://www.w3.org/2000/svg" viewBox="0 0 243.46 129.3"><defs><style>.cls-1{fill:#4d648e;}.cls-2{fill:#273655;}.cls-3{fill:#1e1f26;}.cls-4{fill:#fff;}</style></defs><g id="Layer_2" data-name="Layer 2"><g id="_403" data-name="403"><path class="cls-1" d="M35.81,67H0V52.38l33.49-51h19v51H63V67H52.49V83.43H35.81Zm0-42.88h-.23L17.38,52.38H35.81Z"/><path class="cls-1" d="M205.8,33.72h5.68a30.88,30.88,0,0,0,4.75-.35A13.35,13.35,0,0,0,220.46,32a7.84,7.84,0,0,0,3.07-2.78,8.55,8.55,0,0,0,1.16-4.69,7.64,7.64,0,0,0-2.95-6.15A11,11,0,0,0,214.49,16a10.25,10.25,0,0,0-6.72,2.2,10.09,10.09,0,0,0-3.47,5.45L185.18,19.7a26.13,26.13,0,0,1,4.17-9.1A22.82,22.82,0,0,1,196,4.52a29.2,29.2,0,0,1,8.52-3.42A43.49,43.49,0,0,1,214.38,0a41.31,41.31,0,0,1,10.49,1.33,25.8,25.8,0,0,1,8.86,4.17,20.85,20.85,0,0,1,6.08,7.13,21.57,21.57,0,0,1,2.26,10.2,19.1,19.1,0,0,1-3.59,11.7,16.46,16.46,0,0,1-10.43,6.26v.35a16.24,16.24,0,0,1,6.55,2.2,17.84,17.84,0,0,1,4.81,4.29,18.76,18.76,0,0,1,3,5.79,22,22,0,0,1,1,6.84A23.32,23.32,0,0,1,241.09,71a22.61,22.61,0,0,1-6.38,7.71,27.28,27.28,0,0,1-9.38,4.58,42.4,42.4,0,0,1-11.42,1.5q-11,0-18.94-5.1t-10.49-16.1l18.31-4.29a12.44,12.44,0,0,0,3.77,7q2.83,2.55,8.4,2.55t8.4-3a10.78,10.78,0,0,0,2.72-7.59,8.73,8.73,0,0,0-1.45-5.39,8.61,8.61,0,0,0-3.76-2.84,16.51,16.51,0,0,0-5.22-1.1c-1.93-.12-3.86-.17-5.79-.17H205.8Z"/><g id="Icon"><path class="cls-2" d="M169.59,42.94A42.26,42.26,0,0,1,87.18,56.18a41.66,41.66,0,0,1-2.13-13.24,42.26,42.26,0,0,1,84.52-.06v.06Z"/><path class="cls-1" d="M155.69,29.19a39.58,39.58,0,0,1-68.5,27A41.66,41.66,0,0,1,85.06,43,42.26,42.26,0,0,1,148.41,6.33,39.43,39.43,0,0,1,155.69,29.19Z"/><circle class="cls-3" cx="113.84" cy="28.34" r="9.87"/></g><path class="cls-4" d="M85.74,121.31v-1.74H87.3v-.74a2.83,2.83,0,0,1,.79-2.07,3.17,3.17,0,0,1,2.38-.81c.24,0,.47,0,.7,0l.68,0v2a7.36,7.36,0,0,0-.95,0,1,1,0,0,0-.77.24,1.26,1.26,0,0,0-.23.84v.57h1.8v1.74H89.9v7.75H87.3v-7.75Z"/><path class="cls-4" d="M92.9,122.26a4.33,4.33,0,0,1,1-1.58,4.39,4.39,0,0,1,1.54-1,5.39,5.39,0,0,1,2-.36,5.48,5.48,0,0,1,2,.36,4.32,4.32,0,0,1,2.54,2.59,6.24,6.24,0,0,1,0,4.12,4.38,4.38,0,0,1-1,1.57,4.32,4.32,0,0,1-1.55,1,5.69,5.69,0,0,1-2,.35,5.59,5.59,0,0,1-2-.35,4.3,4.3,0,0,1-2.53-2.57,6.24,6.24,0,0,1,0-4.12Zm2.37,3.17a2.81,2.81,0,0,0,.37,1,2.13,2.13,0,0,0,.71.69,2.16,2.16,0,0,0,1.1.25,2.22,2.22,0,0,0,1.11-.25,2.07,2.07,0,0,0,.72-.69,2.81,2.81,0,0,0,.37-1,5.1,5.1,0,0,0,.11-1.11,5.25,5.25,0,0,0-.11-1.12,2.76,2.76,0,0,0-.37-1,2.16,2.16,0,0,0-.72-.69,2.12,2.12,0,0,0-1.11-.26,2.06,2.06,0,0,0-1.1.26,2.23,2.23,0,0,0-.71.69,2.76,2.76,0,0,0-.37,1,5.25,5.25,0,0,0-.11,1.12A5.1,5.1,0,0,0,95.27,125.43Z"/><path class="cls-4" d="M106.54,119.57v1.76h0a3.13,3.13,0,0,1,.49-.82,3.41,3.41,0,0,1,1.58-1.05,3.11,3.11,0,0,1,1-.15,2,2,0,0,1,.56.09v2.43a3.4,3.4,0,0,0-.44-.07l-.49,0A2.75,2.75,0,0,0,108,122a2.15,2.15,0,0,0-.8.65,2.59,2.59,0,0,0-.43,1,5,5,0,0,0-.13,1.19v4.28h-2.61v-9.49Z"/><path class="cls-4" d="M113.81,116v4.77h0a2.88,2.88,0,0,1,1.29-1.07,4.34,4.34,0,0,1,1.7-.34,3.61,3.61,0,0,1,2.67,1.19,4.72,4.72,0,0,1,.91,1.56,7.38,7.38,0,0,1,0,4.49,4.72,4.72,0,0,1-.91,1.56,3.61,3.61,0,0,1-2.67,1.19A5,5,0,0,1,115,129a2.36,2.36,0,0,1-1.25-1.12h0v1.21H111.2V116Zm4.22,7.22a3.06,3.06,0,0,0-.4-1,2.1,2.1,0,0,0-.69-.67,2.18,2.18,0,0,0-2,0,2.13,2.13,0,0,0-.7.67,3.06,3.06,0,0,0-.4,1,5.11,5.11,0,0,0,0,2.29,2.92,2.92,0,0,0,.4,1,2.07,2.07,0,0,0,.7.68,2.18,2.18,0,0,0,2,0,2,2,0,0,0,.69-.68,2.92,2.92,0,0,0,.4-1,5.11,5.11,0,0,0,0-2.29Z"/><path class="cls-4" d="M122.5,118.1V116h2.6v2.15Zm2.6,1.47v9.49h-2.6v-9.49Z"/><path class="cls-4" d="M133.9,127.85a2.75,2.75,0,0,1-1.21,1.11,3.91,3.91,0,0,1-1.68.34,4.12,4.12,0,0,1-1.87-.41,3.81,3.81,0,0,1-1.33-1.12,5.25,5.25,0,0,1-.79-1.63,6.73,6.73,0,0,1-.27-1.91,6.3,6.3,0,0,1,.27-1.84,4.73,4.73,0,0,1,.79-1.57,3.79,3.79,0,0,1,3.15-1.51,3.75,3.75,0,0,1,1.61.36,2.91,2.91,0,0,1,1.2,1h0V116h2.6v13.11h-2.48v-1.21Zm-.11-4.69a2.92,2.92,0,0,0-.38-1,2.21,2.21,0,0,0-.69-.67,2,2,0,0,0-1.06-.25,2.17,2.17,0,0,0-1.09.25,2,2,0,0,0-.7.68,2.9,2.9,0,0,0-.39,1,5.13,5.13,0,0,0-.12,1.12,4.67,4.67,0,0,0,.13,1.11,3.18,3.18,0,0,0,.41,1,2.29,2.29,0,0,0,.72.7,2,2,0,0,0,1,.26,2.09,2.09,0,0,0,1.07-.25,2,2,0,0,0,.69-.69,3.33,3.33,0,0,0,.37-1,5.86,5.86,0,0,0,0-2.26Z"/><path class="cls-4" d="M145.12,127.85a2.75,2.75,0,0,1-1.21,1.11,3.91,3.91,0,0,1-1.68.34,4.12,4.12,0,0,1-1.87-.41,3.81,3.81,0,0,1-1.33-1.12,5.25,5.25,0,0,1-.79-1.63,6.73,6.73,0,0,1-.27-1.91,6.3,6.3,0,0,1,.27-1.84,4.73,4.73,0,0,1,.79-1.57,3.79,3.79,0,0,1,3.15-1.51,3.67,3.67,0,0,1,1.6.36,2.87,2.87,0,0,1,1.21,1h0V116h2.61v13.11h-2.48v-1.21Zm-.11-4.69a2.92,2.92,0,0,0-.38-1,2.21,2.21,0,0,0-.69-.67,2,2,0,0,0-1.06-.25,2.17,2.17,0,0,0-1.09.25,2,2,0,0,0-.7.68,2.9,2.9,0,0,0-.39,1,5.13,5.13,0,0,0-.12,1.12,4.67,4.67,0,0,0,.13,1.11,3,3,0,0,0,.41,1,2.29,2.29,0,0,0,.72.7,2,2,0,0,0,1,.26,2.09,2.09,0,0,0,1.07-.25,2,2,0,0,0,.69-.69,3.33,3.33,0,0,0,.37-1,5.86,5.86,0,0,0,0-2.26Z"/><path class="cls-4" d="M152.39,126.78a2.67,2.67,0,0,0,3,.18,1.59,1.59,0,0,0,.7-.84h2.3a4.32,4.32,0,0,1-1.69,2.44,5,5,0,0,1-2.76.74,5.42,5.42,0,0,1-2-.36,4.24,4.24,0,0,1-1.52-1,4.36,4.36,0,0,1-1-1.58,5.67,5.67,0,0,1-.34-2,5.36,5.36,0,0,1,.35-2A4.55,4.55,0,0,1,152,119.7a4.84,4.84,0,0,1,2-.39,4.57,4.57,0,0,1,2.12.47,4.09,4.09,0,0,1,1.47,1.26,5,5,0,0,1,.84,1.8,6.68,6.68,0,0,1,.18,2.11h-6.85A2.65,2.65,0,0,0,152.39,126.78Zm2.94-5a1.82,1.82,0,0,0-1.42-.51,2.29,2.29,0,0,0-1,.21,2,2,0,0,0-.66.52,2.11,2.11,0,0,0-.35.66,4.45,4.45,0,0,0-.12.62H156A3,3,0,0,0,155.33,121.79Z"/><path class="cls-4" d="M162.61,119.57v1.32h.06a3,3,0,0,1,1.28-1.2,3.77,3.77,0,0,1,1.62-.38,4.44,4.44,0,0,1,1.72.29,2.63,2.63,0,0,1,1.05.78,3,3,0,0,1,.54,1.24,7.17,7.17,0,0,1,.16,1.6v5.84h-2.61V123.7a3.36,3.36,0,0,0-.36-1.75,1.42,1.42,0,0,0-1.31-.58,1.81,1.81,0,0,0-1.54.63,3.5,3.5,0,0,0-.48,2.08v5h-2.61v-9.49Z"/></g></g></svg>