<svg xmlns="http://www.w3.org/2000/svg" viewBox="0 0 246.59 128.65"><defs><style>.cls-1{fill:#4d648e;}.cls-2{fill:#273655;}.cls-3{fill:#1e1f26;}.cls-4{fill:#fff;}</style></defs><g id="Layer_2" data-name="Layer 2"><g id="_404" data-name="404"><path class="cls-1" d="M35.81,66.33H0V51.73L33.49.74h19v51H63v14.6H52.49V82.79H35.81Zm0-42.88h-.23L17.38,51.73H35.81Z"/><path class="cls-1" d="M219.36,66.33H183.55V51.73L217,.74h19v51h10.54v14.6H236.05V82.79H219.36Zm0-42.88h-.23L200.94,51.73h18.42Z"/><g id="Icon"><path class="cls-2" d="M165,42.29A42.26,42.26,0,0,1,82.59,55.53a41.66,41.66,0,0,1-2.13-13.24,42.26,42.26,0,1,1,84.52,0v0Z"/><path class="cls-1" d="M151.11,28.55a39.58,39.58,0,0,1-68.5,27,41.39,41.39,0,0,1-2.14-13.24A42.26,42.26,0,0,1,143.82,5.68,39.45,39.45,0,0,1,151.11,28.55Z"/><circle class="cls-3" cx="109.26" cy="27.69" r="9.87"/></g><path class="cls-4" d="M84.77,118.92v1.32h0a3,3,0,0,1,1.29-1.2,3.69,3.69,0,0,1,1.61-.38,4.44,4.44,0,0,1,1.72.29,2.44,2.44,0,0,1,1,.79A3,3,0,0,1,91,121a7.91,7.91,0,0,1,.15,1.6v5.84H88.58v-5.36a3.36,3.36,0,0,0-.36-1.75,1.42,1.42,0,0,0-1.31-.58,1.81,1.81,0,0,0-1.54.63,3.52,3.52,0,0,0-.48,2.09v5h-2.6v-9.49Z"/><path class="cls-4" d="M93.23,121.61a4.33,4.33,0,0,1,1-1.58,4.53,4.53,0,0,1,1.54-1,5.88,5.88,0,0,1,4,0,4.39,4.39,0,0,1,1.55,1,4.33,4.33,0,0,1,1,1.58,5.68,5.68,0,0,1,.35,2.06,5.6,5.6,0,0,1-.35,2.06,4.38,4.38,0,0,1-1,1.57,4.11,4.11,0,0,1-1.55,1,6,6,0,0,1-4,0,4.23,4.23,0,0,1-1.54-1,4.38,4.38,0,0,1-1-1.57,5.82,5.82,0,0,1-.35-2.06A5.9,5.9,0,0,1,93.23,121.61Zm2.37,3.18a2.85,2.85,0,0,0,.38,1,1.93,1.93,0,0,0,.7.69,2.18,2.18,0,0,0,1.1.25,2.22,2.22,0,0,0,1.11-.25,2,2,0,0,0,.72-.69,3.07,3.07,0,0,0,.38-1,6,6,0,0,0,.11-1.12,6.07,6.07,0,0,0-.11-1.12,3,3,0,0,0-.38-1,2.16,2.16,0,0,0-.72-.69,2.22,2.22,0,0,0-1.11-.26,2.18,2.18,0,0,0-1.1.26,2.1,2.1,0,0,0-.7.69,2.77,2.77,0,0,0-.38,1,5.32,5.32,0,0,0-.11,1.12A5.25,5.25,0,0,0,95.6,124.79Z"/><path class="cls-4" d="M109.61,118.92v1.74H107.7v4.7a1.29,1.29,0,0,0,.22.89,1.32,1.32,0,0,0,.88.22l.42,0a2.28,2.28,0,0,0,.39-.06v2a7.3,7.3,0,0,1-.74.08h-.79a7,7,0,0,1-1.14-.08,2.59,2.59,0,0,1-1-.32,1.77,1.77,0,0,1-.65-.68,2.41,2.41,0,0,1-.24-1.16v-5.6h-1.58v-1.74h1.58v-2.85h2.61v2.85Z"/><path class="cls-4" d="M115,120.66v-1.74h1.56v-.74a2.83,2.83,0,0,1,.79-2.07,3.2,3.2,0,0,1,2.39-.81q.35,0,.69,0l.68,0v1.94c-.3,0-.62,0-1,0a1,1,0,0,0-.76.24,1.21,1.21,0,0,0-.23.84v.57h1.8v1.74h-1.8v7.75h-2.61v-7.75Z"/><path class="cls-4" d="M122.13,121.61a4.33,4.33,0,0,1,1-1.58,4.53,4.53,0,0,1,1.54-1,5.88,5.88,0,0,1,4.05,0,4.39,4.39,0,0,1,1.55,1,4.49,4.49,0,0,1,1,1.58,5.9,5.9,0,0,1,.34,2.06,5.82,5.82,0,0,1-.34,2.06,4.54,4.54,0,0,1-1,1.57,4.11,4.11,0,0,1-1.55,1,6,6,0,0,1-4.05,0,4.23,4.23,0,0,1-1.54-1,4.38,4.38,0,0,1-1-1.57,5.82,5.82,0,0,1-.35-2.06A5.9,5.9,0,0,1,122.13,121.61Zm2.37,3.18a2.85,2.85,0,0,0,.38,1,1.93,1.93,0,0,0,.7.69,2.18,2.18,0,0,0,1.1.25,2.22,2.22,0,0,0,1.11-.25,2,2,0,0,0,.72-.69,3.07,3.07,0,0,0,.38-1,6,6,0,0,0,.11-1.12,6.07,6.07,0,0,0-.11-1.12,3,3,0,0,0-.38-1,2.16,2.16,0,0,0-.72-.69,2.22,2.22,0,0,0-1.11-.26,2.18,2.18,0,0,0-1.1.26,2.1,2.1,0,0,0-.7.69,2.77,2.77,0,0,0-.38,1,6.07,6.07,0,0,0-.11,1.12A6,6,0,0,0,124.5,124.79Z"/><path class="cls-4" d="M139.72,128.41v-1.32h-.05a2.94,2.94,0,0,1-1.29,1.19,3.75,3.75,0,0,1-1.62.37,4.61,4.61,0,0,1-1.71-.27,2.53,2.53,0,0,1-1.06-.79,2.9,2.9,0,0,1-.54-1.22,8,8,0,0,1-.16-1.61v-5.84h2.61v5.36a3.26,3.26,0,0,0,.37,1.75,1.41,1.41,0,0,0,1.3.58,1.8,1.8,0,0,0,1.54-.63,3.5,3.5,0,0,0,.48-2.08v-5h2.61v9.49Z"/><path class="cls-4" d="M146.66,118.92v1.32h.06A3,3,0,0,1,148,119a3.77,3.77,0,0,1,1.62-.38,4.38,4.38,0,0,1,1.71.29,2.53,2.53,0,0,1,1.06.79,2.89,2.89,0,0,1,.54,1.23,7.88,7.88,0,0,1,.16,1.6v5.84h-2.61v-5.36a3.26,3.26,0,0,0-.37-1.75,1.41,1.41,0,0,0-1.3-.58,1.8,1.8,0,0,0-1.54.63,3.52,3.52,0,0,0-.48,2.09v5h-2.61v-9.49Z"/><path class="cls-4" d="M161.81,127.2a2.75,2.75,0,0,1-1.21,1.11,3.89,3.89,0,0,1-1.67.34,4.16,4.16,0,0,1-1.88-.41,3.81,3.81,0,0,1-1.33-1.12,5.15,5.15,0,0,1-.79-1.63,6.73,6.73,0,0,1-.26-1.91,6.3,6.3,0,0,1,.26-1.84,4.73,4.73,0,0,1,.79-1.57,3.86,3.86,0,0,1,3.15-1.51,3.75,3.75,0,0,1,1.61.36,2.8,2.8,0,0,1,1.2,1.06h0V115.3h2.6v13.11h-2.48V127.2Zm-.11-4.69a2.92,2.92,0,0,0-.38-1,2.32,2.32,0,0,0-.69-.67,2,2,0,0,0-1.06-.25,2.17,2.17,0,0,0-1.09.25,2.07,2.07,0,0,0-.7.68,3,3,0,0,0-.39,1,5.15,5.15,0,0,0-.12,1.13,4.65,4.65,0,0,0,.13,1.1,3.18,3.18,0,0,0,.41,1,2.29,2.29,0,0,0,.72.7,1.91,1.91,0,0,0,1,.26,2.07,2.07,0,0,0,1.07-.25,1.9,1.9,0,0,0,.69-.69,3.38,3.38,0,0,0,.37-1,6.12,6.12,0,0,0,.11-1.14A5.93,5.93,0,0,0,161.7,122.51Z"/></g></g></svg>