<svg xmlns="http://www.w3.org/2000/svg" viewBox="0 0 258.08 128.65"><defs><style>.cls-1{fill:#fff;}.cls-2{fill:#4d648e;}.cls-3{fill:#273655;}.cls-4{fill:#1e1f26;}</style></defs><g id="Layer_2" data-name="Layer 2"><g id="_500" data-name="500"><path class="cls-1" d="M41.2,117.45V115.3h2.61v2.15Zm2.61,1.47v9.49H41.2v-9.49Z"/><path class="cls-1" d="M48.35,118.92v1.32h0a3,3,0,0,1,1.29-1.2,3.69,3.69,0,0,1,1.61-.38A4.44,4.44,0,0,1,53,119a2.53,2.53,0,0,1,1.06.79,3.15,3.15,0,0,1,.54,1.23,7.91,7.91,0,0,1,.15,1.6v5.84h-2.6v-5.36a3.35,3.35,0,0,0-.37-1.75,1.42,1.42,0,0,0-1.31-.58,1.81,1.81,0,0,0-1.54.63,3.52,3.52,0,0,0-.48,2.09v5h-2.6v-9.49Z"/><path class="cls-1" d="M62,118.92v1.74H60.06v4.7a1.29,1.29,0,0,0,.22.89,1.32,1.32,0,0,0,.88.22l.42,0a2.28,2.28,0,0,0,.39-.06v2c-.22,0-.47.06-.73.08h-.79a7,7,0,0,1-1.15-.08,2.65,2.65,0,0,1-1-.32,1.77,1.77,0,0,1-.65-.68,2.41,2.41,0,0,1-.24-1.16v-5.6H55.87v-1.74h1.58v-2.85h2.61v2.85Z"/><path class="cls-1" d="M66,126.14a2.71,2.71,0,0,0,3,.17,1.56,1.56,0,0,0,.69-.84h2.3a4.38,4.38,0,0,1-1.69,2.45,5,5,0,0,1-2.75.73,5.39,5.39,0,0,1-2-.36,4.28,4.28,0,0,1-1.53-1,4.65,4.65,0,0,1-1-1.58,5.67,5.67,0,0,1-.34-2,5.57,5.57,0,0,1,.35-2,4.55,4.55,0,0,1,2.52-2.64,4.89,4.89,0,0,1,2-.39,4.56,4.56,0,0,1,2.11.47,4.2,4.2,0,0,1,1.48,1.26,5.21,5.21,0,0,1,.83,1.8,6.68,6.68,0,0,1,.18,2.11H65.37A2.63,2.63,0,0,0,66,126.14Zm2.95-5a1.86,1.86,0,0,0-1.43-.51,2.25,2.25,0,0,0-1,.21,2,2,0,0,0-.67.52,1.89,1.89,0,0,0-.34.66,2.66,2.66,0,0,0-.12.63h4.24A3,3,0,0,0,69,121.14Z"/><path class="cls-1" d="M76.24,118.92v1.76h0a3.47,3.47,0,0,1,1.21-1.46,3.46,3.46,0,0,1,.87-.41,3,3,0,0,1,1-.15,2.09,2.09,0,0,1,.57.09v2.43a3.71,3.71,0,0,0-.44-.07,4.26,4.26,0,0,0-.5,0,2.93,2.93,0,0,0-1.21.23,2.15,2.15,0,0,0-.8.66,2.63,2.63,0,0,0-.43,1,5.63,5.63,0,0,0-.13,1.19v4.28h-2.6v-9.49Z"/><path class="cls-1" d="M83.71,118.92v1.32h.05a3,3,0,0,1,1.29-1.2,3.73,3.73,0,0,1,1.62-.38,4.42,4.42,0,0,1,1.71.29,2.53,2.53,0,0,1,1.06.79A3,3,0,0,1,90,121a7.91,7.91,0,0,1,.15,1.6v5.84h-2.6v-5.36a3.26,3.26,0,0,0-.37-1.75,1.41,1.41,0,0,0-1.3-.58,1.83,1.83,0,0,0-1.55.63,3.6,3.6,0,0,0-.47,2.09v5H81.23v-9.49Z"/><path class="cls-1" d="M92,121.84a3,3,0,0,1,.46-1.53,3.26,3.26,0,0,1,1-1,4.57,4.57,0,0,1,1.41-.52,7.54,7.54,0,0,1,1.57-.16,11.91,11.91,0,0,1,1.45.1,4.36,4.36,0,0,1,1.34.4,2.63,2.63,0,0,1,1,.82,2.24,2.24,0,0,1,.39,1.38v4.94a9.7,9.7,0,0,0,.07,1.23,2.09,2.09,0,0,0,.26.88H98.32a3,3,0,0,1-.12-.45,3.55,3.55,0,0,1-.06-.47,3.41,3.41,0,0,1-1.47.9,5.61,5.61,0,0,1-1.72.26,4.65,4.65,0,0,1-1.27-.16,3.12,3.12,0,0,1-1-.52,2.42,2.42,0,0,1-.69-.88,3.06,3.06,0,0,1-.25-1.27,2.78,2.78,0,0,1,.29-1.33,2.36,2.36,0,0,1,.73-.83,3.23,3.23,0,0,1,1-.47,9.77,9.77,0,0,1,1.17-.25l1.15-.15a6.49,6.49,0,0,0,1-.16,1.82,1.82,0,0,0,.7-.32.72.72,0,0,0,.24-.62,1.42,1.42,0,0,0-.14-.67,1,1,0,0,0-.37-.38,1.29,1.29,0,0,0-.53-.19,4.45,4.45,0,0,0-.65,0,2,2,0,0,0-1.21.33,1.45,1.45,0,0,0-.52,1.1Zm6,1.93a1.25,1.25,0,0,1-.41.23,4.27,4.27,0,0,1-.54.13l-.59.1q-.31,0-.63.09a3.65,3.65,0,0,0-.57.14,2,2,0,0,0-.5.25,1.32,1.32,0,0,0-.34.4,1.21,1.21,0,0,0-.13.6,1.17,1.17,0,0,0,.13.59,1.07,1.07,0,0,0,.35.38,1.63,1.63,0,0,0,.51.19,3.08,3.08,0,0,0,.61,0,2.32,2.32,0,0,0,1.19-.25,1.78,1.78,0,0,0,.63-.62,2,2,0,0,0,.24-.72,5.36,5.36,0,0,0,0-.59Z"/><path class="cls-1" d="M105.34,115.3v13.11h-2.61V115.3Z"/><path class="cls-1" d="M114.69,126.05a1.67,1.67,0,0,0,.45.5,2,2,0,0,0,.64.28,2.94,2.94,0,0,0,.74.09,3,3,0,0,0,.58-.06,2,2,0,0,0,.55-.2,1.32,1.32,0,0,0,.41-.37,1,1,0,0,0,.17-.58c0-.39-.26-.68-.78-.88a17.16,17.16,0,0,0-2.18-.59,10.06,10.06,0,0,1-1.11-.3,3.56,3.56,0,0,1-1-.46,2.19,2.19,0,0,1-.68-.71,2,2,0,0,1-.26-1.06,2.82,2.82,0,0,1,.36-1.5,2.54,2.54,0,0,1,.94-.93,4.14,4.14,0,0,1,1.33-.48,8.29,8.29,0,0,1,1.5-.14,7.41,7.41,0,0,1,1.5.15,4.07,4.07,0,0,1,1.29.49,2.9,2.9,0,0,1,1.4,2.39H118.1a1.16,1.16,0,0,0-.57-1,2.7,2.7,0,0,0-1.21-.26l-.48,0a1.71,1.71,0,0,0-.47.12,1.07,1.07,0,0,0-.36.27.75.75,0,0,0-.14.47.72.72,0,0,0,.25.57,2.11,2.11,0,0,0,.67.35,6.51,6.51,0,0,0,.95.25l1.08.24c.38.09.75.19,1.11.31a4,4,0,0,1,1,.49,2.33,2.33,0,0,1,.68.75,2.22,2.22,0,0,1,.25,1.11,3,3,0,0,1-.37,1.57,2.91,2.91,0,0,1-1,1,4.17,4.17,0,0,1-1.39.55,8.4,8.4,0,0,1-1.59.15,7.78,7.78,0,0,1-1.61-.16,4.43,4.43,0,0,1-1.41-.56,3,3,0,0,1-1-1,3.23,3.23,0,0,1-.43-1.59h2.48A1.47,1.47,0,0,0,114.69,126.05Z"/><path class="cls-1" d="M125.15,126.14a2.71,2.71,0,0,0,3,.17,1.56,1.56,0,0,0,.69-.84h2.3a4.38,4.38,0,0,1-1.69,2.45,5,5,0,0,1-2.75.73,5.39,5.39,0,0,1-2-.36,4.28,4.28,0,0,1-1.53-1,4.5,4.5,0,0,1-1-1.58,5.67,5.67,0,0,1-.34-2,5.36,5.36,0,0,1,.35-2,4.55,4.55,0,0,1,2.52-2.64,4.89,4.89,0,0,1,2-.39,4.56,4.56,0,0,1,2.11.47,4.2,4.2,0,0,1,1.48,1.26,5.21,5.21,0,0,1,.83,1.8,6.68,6.68,0,0,1,.18,2.11h-6.84A2.63,2.63,0,0,0,125.15,126.14Zm2.95-5a1.86,1.86,0,0,0-1.43-.51,2.32,2.32,0,0,0-1,.21,2,2,0,0,0-.66.52,2.11,2.11,0,0,0-.35.66,3.22,3.22,0,0,0-.11.63h4.24A3.11,3.11,0,0,0,128.1,121.14Z"/><path class="cls-1" d="M135.38,118.92v1.76h0a3.41,3.41,0,0,1,.5-.81,3.35,3.35,0,0,1,.71-.65,3.46,3.46,0,0,1,.87-.41,3,3,0,0,1,.95-.15,2.09,2.09,0,0,1,.57.09v2.43a3.71,3.71,0,0,0-.44-.07,4.18,4.18,0,0,0-.49,0,3,3,0,0,0-1.22.23,2,2,0,0,0-.79.66,2.49,2.49,0,0,0-.44,1,5.63,5.63,0,0,0-.13,1.19v4.28h-2.6v-9.49Z"/><path class="cls-1" d="M142.39,128.41l-3.25-9.49h2.74l2,6.48h0l2-6.48h2.58l-3.21,9.49Z"/><path class="cls-1" d="M152.38,126.14a2.71,2.71,0,0,0,3.05.17,1.56,1.56,0,0,0,.69-.84h2.3a4.38,4.38,0,0,1-1.69,2.45,5,5,0,0,1-2.75.73,5.39,5.39,0,0,1-2-.36,4.28,4.28,0,0,1-1.53-1,4.5,4.5,0,0,1-1-1.58,5.67,5.67,0,0,1-.34-2,5.36,5.36,0,0,1,.35-2,4.55,4.55,0,0,1,2.52-2.64,4.89,4.89,0,0,1,2-.39,4.56,4.56,0,0,1,2.11.47,4.2,4.2,0,0,1,1.48,1.26,5.21,5.21,0,0,1,.83,1.8,6.68,6.68,0,0,1,.18,2.11h-6.84A2.63,2.63,0,0,0,152.38,126.14Zm3-5a1.86,1.86,0,0,0-1.43-.51,2.32,2.32,0,0,0-1,.21,2,2,0,0,0-.66.52,2.11,2.11,0,0,0-.35.66,3.22,3.22,0,0,0-.11.63H156A3.11,3.11,0,0,0,155.33,121.14Z"/><path class="cls-1" d="M162.61,118.92v1.76h0a3.47,3.47,0,0,1,1.21-1.46,3.46,3.46,0,0,1,.87-.41,3,3,0,0,1,.95-.15,2.09,2.09,0,0,1,.57.09v2.43a3.71,3.71,0,0,0-.44-.07,4.26,4.26,0,0,0-.5,0,2.93,2.93,0,0,0-1.21.23,2.15,2.15,0,0,0-.8.66,2.63,2.63,0,0,0-.43,1,5.63,5.63,0,0,0-.13,1.19v4.28h-2.6v-9.49Z"/><path class="cls-1" d="M175.16,126.14a2.39,2.39,0,0,0,1.69.56,2.34,2.34,0,0,0,1.36-.39,1.63,1.63,0,0,0,.7-.84h2.3a4.43,4.43,0,0,1-1.69,2.45,5,5,0,0,1-2.76.73,5.39,5.39,0,0,1-2-.36,4.16,4.16,0,0,1-1.52-1,4.52,4.52,0,0,1-1-1.58,5.9,5.9,0,0,1-.34-2,5.57,5.57,0,0,1,.35-2,5,5,0,0,1,1-1.59,4.63,4.63,0,0,1,1.54-1,4.84,4.84,0,0,1,2-.39,4.53,4.53,0,0,1,2.11.47,4.12,4.12,0,0,1,1.48,1.26,5.05,5.05,0,0,1,.84,1.8,6.68,6.68,0,0,1,.18,2.11h-6.85A2.68,2.68,0,0,0,175.16,126.14Zm3-5a1.84,1.84,0,0,0-1.42-.51,2.29,2.29,0,0,0-1,.21,2,2,0,0,0-.66.52,1.92,1.92,0,0,0-.35.66,2.66,2.66,0,0,0-.12.63h4.24A3,3,0,0,0,178.11,121.14Z"/><path class="cls-1" d="M185.39,118.92v1.76h0a3.37,3.37,0,0,1,.49-.81,3.17,3.17,0,0,1,.72-.65,3.57,3.57,0,0,1,.86-.41,3.11,3.11,0,0,1,1-.15,2.09,2.09,0,0,1,.57.09v2.43l-.44-.07a4.35,4.35,0,0,0-.5,0,2.9,2.9,0,0,0-1.21.23,2.08,2.08,0,0,0-.8.66,2.48,2.48,0,0,0-.43,1,5,5,0,0,0-.13,1.19v4.28h-2.61v-9.49Z"/><path class="cls-1" d="M192.53,118.92v1.76h0a3.11,3.11,0,0,1,.5-.81,2.93,2.93,0,0,1,.71-.65,3.46,3.46,0,0,1,.87-.41,3,3,0,0,1,.95-.15,2.09,2.09,0,0,1,.57.09v2.43a3.71,3.71,0,0,0-.44-.07,4.26,4.26,0,0,0-.5,0,2.93,2.93,0,0,0-1.21.23,2.08,2.08,0,0,0-.8.66,2.63,2.63,0,0,0-.43,1,5.63,5.63,0,0,0-.13,1.19v4.28h-2.61v-9.49Z"/><path class="cls-1" d="M196.92,121.61a4.33,4.33,0,0,1,1-1.58,4.57,4.57,0,0,1,1.55-1,5.35,5.35,0,0,1,2-.36,5.42,5.42,0,0,1,2,.36,4.52,4.52,0,0,1,1.56,1,4.62,4.62,0,0,1,1,1.58,5.9,5.9,0,0,1,.35,2.06,5.82,5.82,0,0,1-.35,2.06,4.67,4.67,0,0,1-1,1.57,4.23,4.23,0,0,1-1.56,1,5.63,5.63,0,0,1-2,.35,5.55,5.55,0,0,1-2-.35,4.27,4.27,0,0,1-1.55-1,4.38,4.38,0,0,1-1-1.57,5.82,5.82,0,0,1-.35-2.06A5.9,5.9,0,0,1,196.92,121.61Zm2.37,3.18a2.85,2.85,0,0,0,.38,1,1.93,1.93,0,0,0,.7.69,2.2,2.2,0,0,0,1.11.25,2.22,2.22,0,0,0,1.11-.25,2,2,0,0,0,.71-.69,2.85,2.85,0,0,0,.38-1,6,6,0,0,0,.11-1.12,6.07,6.07,0,0,0-.11-1.12,2.77,2.77,0,0,0-.38-1,2.13,2.13,0,0,0-.71-.69,2.22,2.22,0,0,0-1.11-.26,2.2,2.2,0,0,0-1.11.26,2.1,2.1,0,0,0-.7.69,2.77,2.77,0,0,0-.38,1,6.07,6.07,0,0,0-.11,1.12A6,6,0,0,0,199.29,124.79Z"/><path class="cls-1" d="M210.56,118.92v1.76h0a3.11,3.11,0,0,1,.5-.81,2.93,2.93,0,0,1,.71-.65,3.46,3.46,0,0,1,.87-.41,3,3,0,0,1,.95-.15,2.09,2.09,0,0,1,.57.09v2.43a3.71,3.71,0,0,0-.44-.07,4.26,4.26,0,0,0-.5,0,2.93,2.93,0,0,0-1.21.23,2.08,2.08,0,0,0-.8.66,2.63,2.63,0,0,0-.43,1,5.63,5.63,0,0,0-.13,1.19v4.28h-2.61v-9.49Z"/><path class="cls-2" d="M56.2,16H23.64l-.35,12.63a22.92,22.92,0,0,1,7.3-.93A33.9,33.9,0,0,1,42.06,29.6a25.43,25.43,0,0,1,9,5.38,24.55,24.55,0,0,1,5.85,8.58A29.32,29.32,0,0,1,59,54.86a30.81,30.81,0,0,1-2.37,12.4,26.6,26.6,0,0,1-6.55,9.21,28.38,28.38,0,0,1-9.91,5.74,38.19,38.19,0,0,1-12.45,2Q17,84.18,9.85,79T0,63.2L18.19,59a11.78,11.78,0,0,0,3.71,7.13,10.84,10.84,0,0,0,7.53,2.72A11.65,11.65,0,0,0,38.3,65.4a12.26,12.26,0,0,0,3.3-8.8,12.11,12.11,0,0,0-1.68-6.67,12.74,12.74,0,0,0-4.4-4.17,18.36,18.36,0,0,0-6.09-2.14A39.1,39.1,0,0,0,22.71,43a47,47,0,0,0-8.63.81,58.81,58.81,0,0,0-8.4,2.2L6.61.74H56.2Z"/><g id="Icon"><path class="cls-3" d="M159.77,42.29A42.26,42.26,0,0,1,77.36,55.53a41.66,41.66,0,0,1-2.13-13.24,42.27,42.27,0,1,1,84.53,0v0Z"/><path class="cls-2" d="M145.88,28.55a39.58,39.58,0,0,1-68.5,27A42.26,42.26,0,0,1,138.6,5.68,39.44,39.44,0,0,1,145.88,28.55Z"/><circle class="cls-4" cx="104.03" cy="27.69" r="9.87"/></g><g id="Icon-2" data-name="Icon"><path class="cls-3" d="M258.08,43a42.26,42.26,0,0,1-82.4,13.24A41.67,41.67,0,0,1,173.54,43a42.27,42.27,0,0,1,84.53,0v0Z"/><path class="cls-2" d="M244.19,29.26a39.58,39.58,0,0,1-68.5,27A41.66,41.66,0,0,1,173.56,43,42.26,42.26,0,0,1,236.91,6.39,39.44,39.44,0,0,1,244.19,29.26Z"/><circle class="cls-4" cx="202.34" cy="28.4" r="9.87"/></g></g></g></svg>