<svg xmlns="http://www.w3.org/2000/svg" viewBox="0 0 269.43 132.38"><defs><style>.cls-1{fill:#4d648e;}.cls-2{fill:#273655;}.cls-3{fill:#1e1f26;}.cls-4{fill:#fff;}</style></defs><g id="Layer_2" data-name="Layer 2"><g id="_502" data-name="502"><path class="cls-1" d="M67.18,16.69H34.62l-.35,12.63a22.92,22.92,0,0,1,7.3-.93A34.15,34.15,0,0,1,53,30.24a25.46,25.46,0,0,1,9,5.39,24.58,24.58,0,0,1,5.86,8.58A29.28,29.28,0,0,1,70,55.51,30.56,30.56,0,0,1,67.58,67.9,26.39,26.39,0,0,1,61,77.12a28.29,28.29,0,0,1-9.91,5.73,37.94,37.94,0,0,1-12.46,2q-10.67,0-17.84-5.21T11,63.85l18.19-4.17a11.68,11.68,0,0,0,3.71,7.12,10.8,10.8,0,0,0,7.53,2.73,11.67,11.67,0,0,0,8.87-3.48,12.28,12.28,0,0,0,3.3-8.81,12.1,12.1,0,0,0-1.68-6.66,12.65,12.65,0,0,0-4.4-4.17,18.36,18.36,0,0,0-6.09-2.14,39.1,39.1,0,0,0-6.72-.58,46.92,46.92,0,0,0-8.63.81,58.81,58.81,0,0,0-8.4,2.2l.92-45.31h49.6Z"/><path class="cls-1" d="M196.5,65l31.87-28.63a59.34,59.34,0,0,0,4.87-5,9.54,9.54,0,0,0,2.43-6.49,7.88,7.88,0,0,0-3-6.54A11.06,11.06,0,0,0,225.59,16,9.72,9.72,0,0,0,218,19a12.11,12.11,0,0,0-3.07,7.42l-17.39-1.28a28.35,28.35,0,0,1,2.67-11.06,23.1,23.1,0,0,1,6.14-7.82,25.9,25.9,0,0,1,9-4.7A38.49,38.49,0,0,1,226.51,0a34,34,0,0,1,10.43,1.56A24.28,24.28,0,0,1,245.4,6.2,21.08,21.08,0,0,1,251,13.9a26.78,26.78,0,0,1,2,10.78,29,29,0,0,1-.81,7.13A24,24,0,0,1,250,37.6a26.51,26.51,0,0,1-3.42,4.81,54.26,54.26,0,0,1-4.29,4.29L217.36,68.14h36.39V83.43H196.5Z"/><g id="Icon"><path class="cls-2" d="M176.64,42.94A42.26,42.26,0,0,1,94.23,56.18,41.66,41.66,0,0,1,92.1,42.94a42.26,42.26,0,0,1,84.52-.06v.06Z"/><path class="cls-1" d="M162.75,29.19a39.59,39.59,0,0,1-68.51,27A41.66,41.66,0,0,1,92.11,43,42.26,42.26,0,0,1,155.46,6.33,39.44,39.44,0,0,1,162.75,29.19Z"/><circle class="cls-3" cx="120.89" cy="28.34" r="9.87"/></g><path class="cls-4" d="M2.65,126.7a1.67,1.67,0,0,0,.45.5,2,2,0,0,0,.64.28,3,3,0,0,0,1.32,0,2,2,0,0,0,.55-.2,1.45,1.45,0,0,0,.41-.37,1,1,0,0,0,.17-.58c0-.39-.26-.68-.78-.88a15.62,15.62,0,0,0-2.18-.59,10.06,10.06,0,0,1-1.11-.3,3.88,3.88,0,0,1-1-.46,2.23,2.23,0,0,1-.68-.72,2,2,0,0,1-.26-1,2.89,2.89,0,0,1,.36-1.51,2.59,2.59,0,0,1,.94-.92,4.14,4.14,0,0,1,1.33-.48,8.29,8.29,0,0,1,1.5-.14,7.41,7.41,0,0,1,1.5.15,4.07,4.07,0,0,1,1.29.49,3.12,3.12,0,0,1,1,.93,3.15,3.15,0,0,1,.45,1.46H6.06a1.16,1.16,0,0,0-.57-1,2.57,2.57,0,0,0-1.21-.27l-.48,0a1.71,1.71,0,0,0-.47.12,1,1,0,0,0-.36.27.73.73,0,0,0-.14.47.72.72,0,0,0,.25.57,2.22,2.22,0,0,0,.67.35,6.86,6.86,0,0,0,1,.25l1.08.24c.38.09.75.19,1.11.31a3.83,3.83,0,0,1,1,.49,2.33,2.33,0,0,1,.68.75A2.22,2.22,0,0,1,8.79,126a3,3,0,0,1-.37,1.57,3.09,3.09,0,0,1-1,1,4,4,0,0,1-1.39.54,7.66,7.66,0,0,1-1.59.16,7.78,7.78,0,0,1-1.61-.17,4.2,4.2,0,0,1-1.41-.55,3,3,0,0,1-1-1A3.16,3.16,0,0,1,0,126H2.48A1.47,1.47,0,0,0,2.65,126.7Z"/><path class="cls-4" d="M13.11,126.78a2.32,2.32,0,0,0,1.69.57,2.34,2.34,0,0,0,1.36-.39,1.63,1.63,0,0,0,.7-.84h2.29a4.32,4.32,0,0,1-1.69,2.44,5,5,0,0,1-2.75.74,5.39,5.39,0,0,1-2-.36,4.28,4.28,0,0,1-1.53-1,4.65,4.65,0,0,1-1-1.58,5.67,5.67,0,0,1-.34-2,5.57,5.57,0,0,1,.35-2,4.55,4.55,0,0,1,2.52-2.64,4.89,4.89,0,0,1,2-.39,4.56,4.56,0,0,1,2.11.47A4.2,4.2,0,0,1,18.3,121a5.13,5.13,0,0,1,.83,1.8,7,7,0,0,1,.19,2.11H12.47A2.61,2.61,0,0,0,13.11,126.78Zm2.95-5a1.86,1.86,0,0,0-1.43-.51,2.25,2.25,0,0,0-1,.21,1.84,1.84,0,0,0-.66.52,1.76,1.76,0,0,0-.35.66,2.69,2.69,0,0,0-.12.62h4.24A3,3,0,0,0,16.06,121.79Z"/><path class="cls-4" d="M23.34,119.57v1.76h0a3.47,3.47,0,0,1,.5-.82,3.58,3.58,0,0,1,.71-.64,3.46,3.46,0,0,1,.87-.41,3,3,0,0,1,.95-.15,2.09,2.09,0,0,1,.57.09v2.43a3.71,3.71,0,0,0-.44-.07l-.49,0a2.79,2.79,0,0,0-1.22.24,2.11,2.11,0,0,0-.79.65,2.61,2.61,0,0,0-.44,1,5.56,5.56,0,0,0-.13,1.19v4.28h-2.6v-9.49Z"/><path class="cls-4" d="M30.35,129.06l-3.25-9.49h2.74l2,6.48h0l2-6.48h2.58l-3.21,9.49Z"/><path class="cls-4" d="M37.62,118.1V116h2.61v2.15Zm2.61,1.47v9.49H37.62v-9.49Z"/><path class="cls-4" d="M46.82,121.28a1.85,1.85,0,0,0-1,.28,2.26,2.26,0,0,0-.68.73,3,3,0,0,0-.38,1,5.16,5.16,0,0,0,0,2.12,3.08,3.08,0,0,0,.36,1,2.07,2.07,0,0,0,.67.71,1.86,1.86,0,0,0,1,.27,1.91,1.91,0,0,0,1.44-.52,2.56,2.56,0,0,0,.63-1.41h2.52a4.32,4.32,0,0,1-1.47,2.89,4.77,4.77,0,0,1-3.11,1,5.13,5.13,0,0,1-2-.36,4.33,4.33,0,0,1-1.52-1,4.65,4.65,0,0,1-1-1.53,5.42,5.42,0,0,1-.35-2,6.52,6.52,0,0,1,.32-2,4.64,4.64,0,0,1,.95-1.63,4.15,4.15,0,0,1,1.52-1.07,5.15,5.15,0,0,1,2.06-.39,5.81,5.81,0,0,1,1.62.22,4.43,4.43,0,0,1,1.4.67,3.7,3.7,0,0,1,1,1.12,3.6,3.6,0,0,1,.44,1.59H48.75A1.75,1.75,0,0,0,46.82,121.28Z"/><path class="cls-4" d="M55.62,126.78a2.31,2.31,0,0,0,1.68.57,2.34,2.34,0,0,0,1.36-.39,1.59,1.59,0,0,0,.7-.84h2.3A4.32,4.32,0,0,1,60,128.56a5,5,0,0,1-2.76.74,5.42,5.42,0,0,1-2-.36,4.16,4.16,0,0,1-1.52-1,4.36,4.36,0,0,1-1-1.58,5.67,5.67,0,0,1-.34-2,5.57,5.57,0,0,1,.34-2,4.83,4.83,0,0,1,1-1.59,4.59,4.59,0,0,1,1.53-1,4.84,4.84,0,0,1,2-.39,4.53,4.53,0,0,1,2.11.47A4.12,4.12,0,0,1,60.8,121a5,5,0,0,1,.84,1.8,6.68,6.68,0,0,1,.18,2.11H55A2.61,2.61,0,0,0,55.62,126.78Zm2.94-5a1.82,1.82,0,0,0-1.42-.51,2.29,2.29,0,0,0-1,.21,2,2,0,0,0-.66.52,2.11,2.11,0,0,0-.35.66,2.69,2.69,0,0,0-.12.62h4.24A2.9,2.9,0,0,0,58.56,121.79Z"/><path class="cls-4" d="M73.68,119.57v1.74H71.77V126a1.3,1.3,0,0,0,.22.88,1.28,1.28,0,0,0,.89.22h.42c.13,0,.26,0,.38-.06v2a5.17,5.17,0,0,1-.73.07c-.27,0-.53,0-.79,0a8.31,8.31,0,0,1-1.15-.08,2.73,2.73,0,0,1-1-.32,1.73,1.73,0,0,1-.66-.68,2.54,2.54,0,0,1-.23-1.16v-5.6H67.59v-1.74h1.58v-2.85h2.6v2.85Z"/><path class="cls-4" d="M77.72,126.78a2.69,2.69,0,0,0,3,.18,1.63,1.63,0,0,0,.7-.84h2.29a4.27,4.27,0,0,1-1.69,2.44,5,5,0,0,1-2.75.74,5.39,5.39,0,0,1-2-.36,4.16,4.16,0,0,1-1.52-1,4.52,4.52,0,0,1-1-1.58,5.67,5.67,0,0,1-.34-2,5.57,5.57,0,0,1,.35-2,4.53,4.53,0,0,1,2.53-2.64,4.84,4.84,0,0,1,2-.39,4.53,4.53,0,0,1,2.11.47A4.2,4.2,0,0,1,82.91,121a5.13,5.13,0,0,1,.83,1.8,6.4,6.4,0,0,1,.19,2.11H77.08A2.65,2.65,0,0,0,77.72,126.78Zm3-5a1.84,1.84,0,0,0-1.42-.51,2.26,2.26,0,0,0-1,.21,1.84,1.84,0,0,0-.66.52,1.92,1.92,0,0,0-.35.66,2.69,2.69,0,0,0-.12.62h4.24A3,3,0,0,0,80.67,121.79Z"/><path class="cls-4" d="M88,119.57v1.28h0a3.73,3.73,0,0,1,1.24-1.14,3.45,3.45,0,0,1,1.66-.4,3.83,3.83,0,0,1,1.64.35,2.25,2.25,0,0,1,1.13,1.23,4.18,4.18,0,0,1,1.15-1.1,3,3,0,0,1,1.72-.48,5.14,5.14,0,0,1,1.39.18,3,3,0,0,1,1.11.59,2.71,2.71,0,0,1,.71,1.06,4.3,4.3,0,0,1,.26,1.57v6.35H97.44v-5.38q0-.48,0-.9a2,2,0,0,0-.21-.73,1.22,1.22,0,0,0-.48-.5,1.83,1.83,0,0,0-.88-.18,1.7,1.7,0,0,0-.89.21,1.55,1.55,0,0,0-.53.55,2.33,2.33,0,0,0-.26.77,6.36,6.36,0,0,0-.06.87v5.29H91.49v-5.32c0-.29,0-.56,0-.84a2.28,2.28,0,0,0-.15-.76,1.2,1.2,0,0,0-.46-.56,1.76,1.76,0,0,0-1-.21,1.69,1.69,0,0,0-.48.08,1.53,1.53,0,0,0-.59.31,2,2,0,0,0-.49.66,2.79,2.79,0,0,0-.2,1.13v5.51H85.54v-9.49Z"/><path class="cls-4" d="M104.58,119.57v1.21h0a2.88,2.88,0,0,1,1.21-1.12,3.77,3.77,0,0,1,1.62-.35,3.9,3.9,0,0,1,3.27,1.54,5,5,0,0,1,.79,1.63,7.27,7.27,0,0,1,.25,1.94,6.57,6.57,0,0,1-.25,1.83,5,5,0,0,1-.78,1.56,4,4,0,0,1-1.31,1.09,4,4,0,0,1-1.83.4,3.69,3.69,0,0,1-1.62-.36,3.09,3.09,0,0,1-1.22-1h0v4.49H102.1V119.57ZM108,127.1a2.24,2.24,0,0,0,.7-.67,2.69,2.69,0,0,0,.37-1,5.29,5.29,0,0,0,0-2.24,2.85,2.85,0,0,0-.4-1,2.16,2.16,0,0,0-.71-.7,1.93,1.93,0,0,0-1.05-.26,2,2,0,0,0-1.08.26,2.17,2.17,0,0,0-.69.69,2.77,2.77,0,0,0-.38,1,6.12,6.12,0,0,0-.11,1.14,5.26,5.26,0,0,0,.12,1.12,3.12,3.12,0,0,0,.38,1,2.28,2.28,0,0,0,.71.67,2.12,2.12,0,0,0,1.07.25A2.07,2.07,0,0,0,108,127.1Z"/><path class="cls-4" d="M113.38,122.26a4.33,4.33,0,0,1,1-1.58,4.39,4.39,0,0,1,1.54-1,5.88,5.88,0,0,1,4,0,4.32,4.32,0,0,1,2.54,2.59,6.24,6.24,0,0,1,0,4.12,4.38,4.38,0,0,1-1,1.57,4.32,4.32,0,0,1-1.55,1,6,6,0,0,1-4,0,4.3,4.3,0,0,1-2.53-2.57,6.24,6.24,0,0,1,0-4.12Zm2.37,3.17a3,3,0,0,0,.37,1,2.13,2.13,0,0,0,.71.69,2.16,2.16,0,0,0,1.1.25,2.22,2.22,0,0,0,1.11-.25,2.07,2.07,0,0,0,.72-.69,3,3,0,0,0,.38-1,5.8,5.8,0,0,0,.11-1.11,6,6,0,0,0-.11-1.12,3,3,0,0,0-.38-1,2.16,2.16,0,0,0-.72-.69,2.12,2.12,0,0,0-1.11-.26,2.06,2.06,0,0,0-1.1.26,2.23,2.23,0,0,0-.71.69,3,3,0,0,0-.37,1,5.25,5.25,0,0,0-.11,1.12A5.1,5.1,0,0,0,115.75,125.43Z"/><path class="cls-4" d="M127,119.57v1.76h0a3.43,3.43,0,0,1,.49-.82,3.37,3.37,0,0,1,.72-.64,3.57,3.57,0,0,1,.86-.41,3.11,3.11,0,0,1,1-.15,2.09,2.09,0,0,1,.57.09v2.43l-.44-.07-.5,0a2.75,2.75,0,0,0-1.21.24,2.15,2.15,0,0,0-.8.65,2.59,2.59,0,0,0-.43,1,5,5,0,0,0-.13,1.19v4.28h-2.61v-9.49Z"/><path class="cls-4" d="M131.57,122.49A3.1,3.1,0,0,1,132,121a3.19,3.19,0,0,1,1-1,4.57,4.57,0,0,1,1.41-.52,7.54,7.54,0,0,1,1.57-.16,10.3,10.3,0,0,1,1.45.1,4.45,4.45,0,0,1,1.34.4,2.61,2.61,0,0,1,1,.81,2.27,2.27,0,0,1,.38,1.39V127a9.65,9.65,0,0,0,.08,1.23,2.26,2.26,0,0,0,.25.88h-2.64a3.74,3.74,0,0,1-.12-.45,3.55,3.55,0,0,1-.06-.47,3.41,3.41,0,0,1-1.47.9,6,6,0,0,1-1.73.26,4.75,4.75,0,0,1-1.27-.17,2.88,2.88,0,0,1-1-.51,2.3,2.3,0,0,1-.69-.88,2.94,2.94,0,0,1-.25-1.27,2.88,2.88,0,0,1,.28-1.33,2.42,2.42,0,0,1,.74-.84,3.34,3.34,0,0,1,1-.46,9.22,9.22,0,0,1,1.16-.25l1.16-.15a6.49,6.49,0,0,0,1-.16,1.9,1.9,0,0,0,.7-.32.74.74,0,0,0,.24-.62,1.39,1.39,0,0,0-.14-.67,1.07,1.07,0,0,0-.37-.39,1.44,1.44,0,0,0-.53-.18,4.4,4.4,0,0,0-.65,0,2,2,0,0,0-1.21.34,1.45,1.45,0,0,0-.52,1.1Zm6,1.93a1.19,1.19,0,0,1-.42.22,2.74,2.74,0,0,1-.53.14,5.4,5.4,0,0,1-.6.09l-.62.1a3.77,3.77,0,0,0-.58.14,1.74,1.74,0,0,0-.49.25,1,1,0,0,0-.34.4,1.21,1.21,0,0,0-.13.6,1.2,1.2,0,0,0,.13.59,1,1,0,0,0,.34.38,1.6,1.6,0,0,0,.52.19,3.94,3.94,0,0,0,.6,0,2.33,2.33,0,0,0,1.2-.25,1.75,1.75,0,0,0,.62-.62,1.88,1.88,0,0,0,.25-.72,5.36,5.36,0,0,0,0-.59Z"/><path class="cls-4" d="M144.7,119.57v1.76h0a3.17,3.17,0,0,1,.5-.82,3.1,3.1,0,0,1,.71-.64,3.57,3.57,0,0,1,.86-.41,3.11,3.11,0,0,1,1-.15,2.09,2.09,0,0,1,.57.09v2.43a3.71,3.71,0,0,0-.44-.07l-.5,0a2.75,2.75,0,0,0-1.21.24,2.15,2.15,0,0,0-.8.65,2.59,2.59,0,0,0-.43,1,5,5,0,0,0-.13,1.19v4.28h-2.61v-9.49Z"/><path class="cls-4" d="M149.44,118.1V116h2.61v2.15Zm2.61,1.47v9.49h-2.61v-9.49Z"/><path class="cls-4" d="M156.78,116v13.11h-2.6V116Z"/><path class="cls-4" d="M162.35,131.89a3.82,3.82,0,0,1-2.1.49c-.27,0-.53,0-.79,0l-.8-.07v-2.15l.75.08a6.6,6.6,0,0,0,.77,0,1,1,0,0,0,.76-.41,1.27,1.27,0,0,0,.25-.77,1.67,1.67,0,0,0-.11-.59l-3.32-8.9h2.77l2.15,6.5h0l2.08-6.5h2.7l-4,10.67A3.2,3.2,0,0,1,162.35,131.89Z"/><path class="cls-4" d="M173.53,122.26a4.33,4.33,0,0,1,1-1.58,4.39,4.39,0,0,1,1.54-1,5.88,5.88,0,0,1,4.05,0,4.32,4.32,0,0,1,2.54,2.59,6.24,6.24,0,0,1,0,4.12,4.38,4.38,0,0,1-1,1.57,4.32,4.32,0,0,1-1.55,1,6,6,0,0,1-4.05,0,4.3,4.3,0,0,1-2.53-2.57,6.24,6.24,0,0,1,0-4.12Zm2.37,3.17a3,3,0,0,0,.37,1,2.13,2.13,0,0,0,.71.69,2.16,2.16,0,0,0,1.1.25,2.22,2.22,0,0,0,1.11-.25,2.07,2.07,0,0,0,.72-.69,3,3,0,0,0,.38-1,5.8,5.8,0,0,0,.11-1.11,6,6,0,0,0-.11-1.12,3,3,0,0,0-.38-1,2.16,2.16,0,0,0-.72-.69,2.12,2.12,0,0,0-1.11-.26,2.06,2.06,0,0,0-1.1.26,2.23,2.23,0,0,0-.71.69,3,3,0,0,0-.37,1,5.25,5.25,0,0,0-.11,1.12A5.1,5.1,0,0,0,175.9,125.43Z"/><path class="cls-4" d="M187,129.06l-3.25-9.49h2.74l2,6.48h0l2-6.48h2.59l-3.22,9.49Z"/><path class="cls-4" d="M197,126.78a2.69,2.69,0,0,0,3.05.18,1.63,1.63,0,0,0,.7-.84h2.29a4.32,4.32,0,0,1-1.69,2.44,5,5,0,0,1-2.75.74,5.39,5.39,0,0,1-2-.36,4.28,4.28,0,0,1-1.53-1,4.65,4.65,0,0,1-1-1.58,5.67,5.67,0,0,1-.34-2,5.57,5.57,0,0,1,.35-2,4.55,4.55,0,0,1,2.52-2.64,4.93,4.93,0,0,1,2-.39,4.53,4.53,0,0,1,2.11.47,4.2,4.2,0,0,1,1.48,1.26,5.13,5.13,0,0,1,.83,1.8,6.68,6.68,0,0,1,.19,2.11h-6.85A2.61,2.61,0,0,0,197,126.78Zm2.95-5a1.85,1.85,0,0,0-1.43-.51,2.25,2.25,0,0,0-1,.21,1.84,1.84,0,0,0-.66.52,1.76,1.76,0,0,0-.35.66,2.69,2.69,0,0,0-.12.62h4.24A3,3,0,0,0,200,121.79Z"/><path class="cls-4" d="M207.26,119.57v1.76h0a3.47,3.47,0,0,1,.5-.82,3.41,3.41,0,0,1,1.58-1.05,3,3,0,0,1,.95-.15,2,2,0,0,1,.57.09v2.43a3.71,3.71,0,0,0-.44-.07l-.49,0a2.82,2.82,0,0,0-1.22.24,2.11,2.11,0,0,0-.79.65,2.61,2.61,0,0,0-.44,1,5.58,5.58,0,0,0-.12,1.19v4.28h-2.61v-9.49Z"/><path class="cls-4" d="M214.6,116v13.11H212V116Z"/><path class="cls-4" d="M216.71,122.26a4.49,4.49,0,0,1,1-1.58,4.3,4.3,0,0,1,1.54-1,5.39,5.39,0,0,1,2-.36,5.51,5.51,0,0,1,2,.36,4.43,4.43,0,0,1,1.55,1,4.33,4.33,0,0,1,1,1.58,6.24,6.24,0,0,1,0,4.12A4.29,4.29,0,0,1,223.3,129a5.73,5.73,0,0,1-2,.35,5.59,5.59,0,0,1-2-.35,4.28,4.28,0,0,1-1.54-1,4.54,4.54,0,0,1-1-1.57,6.24,6.24,0,0,1,0-4.12Zm2.37,3.17a3,3,0,0,0,.38,1,2,2,0,0,0,.71.69,2.16,2.16,0,0,0,1.1.25,2.22,2.22,0,0,0,1.11-.25,2,2,0,0,0,.71-.69,2.82,2.82,0,0,0,.38-1,5.8,5.8,0,0,0,.11-1.11,6,6,0,0,0-.11-1.12,2.77,2.77,0,0,0-.38-1,2,2,0,0,0-.71-.69,2.12,2.12,0,0,0-1.11-.26,2.06,2.06,0,0,0-1.1.26,2.13,2.13,0,0,0-.71.69,3,3,0,0,0-.38,1,6,6,0,0,0-.11,1.12A5.8,5.8,0,0,0,219.08,125.43Z"/><path class="cls-4" d="M227.77,122.49a3,3,0,0,1,.46-1.53,3.26,3.26,0,0,1,1-1,4.57,4.57,0,0,1,1.41-.52,7.54,7.54,0,0,1,1.57-.16,10.2,10.2,0,0,1,1.45.1,4.36,4.36,0,0,1,1.34.4,2.61,2.61,0,0,1,1,.81,2.27,2.27,0,0,1,.39,1.39V127a9.7,9.7,0,0,0,.07,1.23,2.09,2.09,0,0,0,.26.88h-2.65a3.74,3.74,0,0,1-.12-.45,3.55,3.55,0,0,1-.06-.47,3.41,3.41,0,0,1-1.47.9,5.93,5.93,0,0,1-1.72.26,4.64,4.64,0,0,1-1.27-.17,2.93,2.93,0,0,1-1-.51,2.51,2.51,0,0,1-.69-.88,3.09,3.09,0,0,1-.25-1.27,2.76,2.76,0,0,1,.29-1.33,2.39,2.39,0,0,1,.73-.84,3.34,3.34,0,0,1,1-.46,9.37,9.37,0,0,1,1.17-.25l1.15-.15a6.49,6.49,0,0,0,1-.16,1.82,1.82,0,0,0,.7-.32.74.74,0,0,0,.24-.62,1.39,1.39,0,0,0-.14-.67,1,1,0,0,0-.37-.39,1.44,1.44,0,0,0-.53-.18,4.4,4.4,0,0,0-.65,0,2,2,0,0,0-1.21.34,1.45,1.45,0,0,0-.52,1.1Zm6,1.93a1.23,1.23,0,0,1-.41.22,3.05,3.05,0,0,1-.54.14,5.21,5.21,0,0,1-.59.09l-.63.1a4.07,4.07,0,0,0-.58.14,1.74,1.74,0,0,0-.49.25,1.1,1.1,0,0,0-.34.4,1.21,1.21,0,0,0-.13.6,1.2,1.2,0,0,0,.13.59,1,1,0,0,0,.35.38,1.63,1.63,0,0,0,.51.19,4.07,4.07,0,0,0,.61,0,2.32,2.32,0,0,0,1.19-.25,1.87,1.87,0,0,0,.63-.62,2,2,0,0,0,.24-.72,5.36,5.36,0,0,0,0-.59Z"/><path class="cls-4" d="M245.16,127.85A2.75,2.75,0,0,1,244,129a3.91,3.91,0,0,1-1.68.34,4.12,4.12,0,0,1-1.87-.41,3.81,3.81,0,0,1-1.33-1.12,5.25,5.25,0,0,1-.79-1.63,6.73,6.73,0,0,1-.27-1.91,6.3,6.3,0,0,1,.27-1.84,4.73,4.73,0,0,1,.79-1.57,3.89,3.89,0,0,1,1.31-1.1,4,4,0,0,1,1.84-.41,3.67,3.67,0,0,1,1.6.36,2.87,2.87,0,0,1,1.21,1h0V116h2.61v13.11h-2.48v-1.21Zm-.12-4.69a2.71,2.71,0,0,0-.37-1,2.21,2.21,0,0,0-.69-.67,2,2,0,0,0-1.06-.25,2.14,2.14,0,0,0-1.09.25,2.1,2.1,0,0,0-.71.68,3.12,3.12,0,0,0-.38,1,5.13,5.13,0,0,0-.12,1.12,4.67,4.67,0,0,0,.13,1.11,3,3,0,0,0,.41,1,2.29,2.29,0,0,0,.72.7,2,2,0,0,0,1,.26,2.09,2.09,0,0,0,1.07-.25,2,2,0,0,0,.69-.69,3.07,3.07,0,0,0,.36-1,5.38,5.38,0,0,0,0-2.26Z"/><path class="cls-4" d="M252.43,126.78a2.67,2.67,0,0,0,3,.18,1.59,1.59,0,0,0,.7-.84h2.3a4.32,4.32,0,0,1-1.69,2.44,5,5,0,0,1-2.76.74,5.42,5.42,0,0,1-2-.36,4.24,4.24,0,0,1-1.52-1,4.36,4.36,0,0,1-1-1.58,5.67,5.67,0,0,1-.34-2,5.57,5.57,0,0,1,.34-2,4.83,4.83,0,0,1,1-1.59,4.59,4.59,0,0,1,1.53-1,4.84,4.84,0,0,1,2-.39,4.5,4.5,0,0,1,2.11.47,4.12,4.12,0,0,1,1.48,1.26,5,5,0,0,1,.84,1.8,6.68,6.68,0,0,1,.18,2.11h-6.85A2.61,2.61,0,0,0,252.43,126.78Zm2.94-5a1.82,1.82,0,0,0-1.42-.51,2.29,2.29,0,0,0-1,.21,2,2,0,0,0-.66.52,2.11,2.11,0,0,0-.35.66,2.69,2.69,0,0,0-.12.62H256A2.9,2.9,0,0,0,255.37,121.79Z"/><path class="cls-4" d="M266.91,127.85a2.67,2.67,0,0,1-1.2,1.11,4,4,0,0,1-1.68.34,4.12,4.12,0,0,1-1.87-.41,3.73,3.73,0,0,1-1.33-1.12,5,5,0,0,1-.79-1.63,6.73,6.73,0,0,1-.27-1.91,6.3,6.3,0,0,1,.27-1.84,4.55,4.55,0,0,1,.79-1.57,3.8,3.8,0,0,1,1.31-1.1,4,4,0,0,1,1.83-.41,3.71,3.71,0,0,1,1.61.36,2.79,2.79,0,0,1,1.2,1h0V116h2.61v13.11H267v-1.21Zm-.11-4.69a2.91,2.91,0,0,0-.37-1,2.21,2.21,0,0,0-.69-.67,2,2,0,0,0-1.07-.25,2,2,0,0,0-1.79.93,3.12,3.12,0,0,0-.38,1,5.13,5.13,0,0,0-.12,1.12,4.67,4.67,0,0,0,.13,1.11,3,3,0,0,0,.41,1,2.37,2.37,0,0,0,.71.7,2,2,0,0,0,1,.26,2.11,2.11,0,0,0,1.08-.25,2.17,2.17,0,0,0,.69-.69,3.07,3.07,0,0,0,.36-1,5.86,5.86,0,0,0,0-2.26Z"/></g></g></svg>