<svg xmlns="http://www.w3.org/2000/svg" viewBox="0 0 239.76 507.53"><defs><style>.cls-1{opacity:0.25;}.cls-2{fill:#2a3653;}.cls-3{fill:#51648a;}.cls-4{fill:#1e1f25;}</style></defs><g id="Layer_2" data-name="Layer 2"><g id="_502" data-name="502"><g id="Blueberry" class="cls-1"><g id="Icon_color_" data-name="Icon color "><g id="Sphere"><path class="cls-2" d="M239.76,0V507.53H87.11A302.46,302.46,0,0,1,16.35,197.8q1.06-3.11,2.2-6.2c.42-1.16.85-2.31,1.29-3.46s.88-2.3,1.33-3.44.89-2.22,1.34-3.33c.17-.41.33-.82.51-1.23.31-.75.62-1.5.94-2.25,1-2.41,2.07-4.8,3.15-7.19.44-1,.88-1.92,1.33-2.87.51-1.11,1-2.21,1.57-3.31s1.07-2.2,1.61-3.29,1.09-2.18,1.65-3.27a3.18,3.18,0,0,1,.16-.32c.9-1.76,1.82-3.5,2.76-5.24l1.42-2.6A303.57,303.57,0,0,1,161.89,28l2.7-1.39c1-.5,1.95-1,2.92-1.47l2.59-1.27A299.51,299.51,0,0,1,239.76,0"/><path class="cls-3" d="M207.22,8.84A302.8,302.8,0,0,1,239.76,0V479.75q-8.79.54-17.72.54A282.86,282.86,0,0,1,15.46,390.61l-.07-.08A300.72,300.72,0,0,1,18.55,191.6c.42-1.16.85-2.31,1.29-3.46s.88-2.3,1.33-3.44.89-2.22,1.34-3.33c.17-.41.33-.82.51-1.23.31-.75.62-1.5.94-2.25,1-2.41,2.07-4.8,3.15-7.19.44-1,.88-1.92,1.33-2.87.51-1.11,1-2.21,1.57-3.31s1.07-2.2,1.61-3.29,1.09-2.18,1.65-3.27a3.18,3.18,0,0,1,.16-.32,301.2,301.2,0,0,1,131.16-131c1-.5,1.95-1,2.92-1.47A305.28,305.28,0,0,1,207.22,8.84Z"/><path class="cls-4" d="M239.76,129.48V253.24a70.56,70.56,0,1,1,0-123.76Z"/></g></g></g></g></g></svg>