<svg xmlns="http://www.w3.org/2000/svg" viewBox="0 0 164.33 125"><defs><style>.cls-1{opacity:0.25;}.cls-2{fill:#273655;}.cls-3{fill:#4e658f;}.cls-4{fill:#1e1f27;}</style></defs><g id="Layer_2" data-name="Layer 2"><g id="Layer_7" data-name="Layer 7"><g id="Layer_2-2" data-name="Layer 2" class="cls-1"><g id="Icon_color_" data-name="Icon color "><g id="Sphere"><path class="cls-2" d="M164.33,62.54A81.92,81.92,0,0,1,135.47,125H28.89A82.11,82.11,0,0,1,4.19,88.35L3.74,87a1.87,1.87,0,0,1-.07-.22c-.38-1.22-.72-2.46-1-3.71-.12-.47-.24-1-.35-1.42a82.84,82.84,0,0,1,.52-40.26c.12-.45.25-.91.38-1.36.18-.65.38-1.29.58-1.94s.4-1.28.62-1.91S4.77,35,5,34.39s.36-1,.56-1.48.32-.82.49-1.23c.67-1.68,1.41-3.35,2.22-5,.22-.47.46-1,.7-1.42.92-1.83,1.93-3.63,3-5.39.28-.47.57-.93.87-1.4.55-.87,1.11-1.72,1.7-2.57l.89-1.26c.48-.68,1-1.35,1.49-2A82.51,82.51,0,0,1,28.9,0H135.48A82.16,82.16,0,0,1,164.33,62.54Z"/><path class="cls-3" d="M28.9,0h99.62A77,77,0,0,1,4.19,88.35h0c-.15-.46-.3-.93-.44-1.39a1.87,1.87,0,0,1-.07-.22c-.39-1.23-.74-2.47-1-3.71-.12-.47-.24-1-.35-1.42a81.54,81.54,0,0,1,.52-40.26c.12-.45.25-.91.38-1.36.18-.65.38-1.29.58-1.94s.4-1.28.62-1.91S4.77,35,5,34.39s.36-1,.56-1.48.32-.82.49-1.23c.67-1.68,1.41-3.35,2.22-5,.22-.47.46-1,.7-1.42.92-1.83,1.93-3.63,3-5.39.28-.47.57-.93.87-1.4.55-.87,1.11-1.72,1.7-2.57l.89-1.26c.48-.68,1-1.35,1.49-2A80.57,80.57,0,0,1,28.84,0"/><circle class="cls-4" cx="55.98" cy="34.17" r="19.19"/></g></g></g></g></g></svg>