<svg xmlns="http://www.w3.org/2000/svg" viewBox="0 0 17.68 17.68"><defs><style>.cls-1{fill:#273655;fill-rule:evenodd;}</style></defs><g id="Layer_2" data-name="Layer 2"><g id="Layer_6" data-name="Layer 6"><path class="cls-1" d="M15.52,0a2.16,2.16,0,0,1,2.16,2.16V15.52a2.16,2.16,0,0,1-2.16,2.16H11.84V11h2.3l.44-2.85H11.84V6.31a1.43,1.43,0,0,1,1.61-1.54H14.7V2.34a15.4,15.4,0,0,0-2.21-.19A3.48,3.48,0,0,0,8.76,6V8.17H6.25V11H8.76v6.66H2.16A2.16,2.16,0,0,1,0,15.52V2.16A2.16,2.16,0,0,1,2.16,0Z"/></g></g></svg>