<svg xmlns="http://www.w3.org/2000/svg" viewBox="0 0 17.68 17.68"><defs><style>.cls-1{fill:#273655;fill-rule:evenodd;}</style></defs><g id="Layer_2" data-name="Layer 2"><g id="Layer_6" data-name="Layer 6"><path class="cls-1" d="M15.52,0a2.16,2.16,0,0,1,2.16,2.16V15.52a2.16,2.16,0,0,1-2.16,2.16H2.16A2.16,2.16,0,0,1,0,15.52V2.16A2.16,2.16,0,0,1,2.16,0ZM8.84,2.8c-1.64,0-1.85,0-2.49,0a4.51,4.51,0,0,0-1.47.28A3.12,3.12,0,0,0,3.11,4.88a4.51,4.51,0,0,0-.28,1.47c0,.64,0,.85,0,2.49s0,1.85,0,2.49a4.51,4.51,0,0,0,.28,1.47,3.12,3.12,0,0,0,1.77,1.77,4.79,4.79,0,0,0,1.47.28c.64,0,.85,0,2.49,0s1.85,0,2.49,0a4.79,4.79,0,0,0,1.47-.28,3.12,3.12,0,0,0,1.77-1.77,4.79,4.79,0,0,0,.28-1.47c0-.64,0-.85,0-2.49s0-1.85,0-2.49a4.79,4.79,0,0,0-.28-1.47A3.12,3.12,0,0,0,12.8,3.11a4.51,4.51,0,0,0-1.47-.28C10.69,2.8,10.48,2.8,8.84,2.8Zm0,1.09c1.61,0,1.8,0,2.44,0a3.45,3.45,0,0,1,1.12.21,2,2,0,0,1,1.15,1.15,3.45,3.45,0,0,1,.21,1.12c0,.64,0,.83,0,2.44s0,1.8,0,2.44a3.45,3.45,0,0,1-.21,1.12,2,2,0,0,1-1.15,1.15,3.45,3.45,0,0,1-1.12.21c-.64,0-.83,0-2.44,0s-1.8,0-2.44,0a3.45,3.45,0,0,1-1.12-.21A2,2,0,0,1,4.13,12.4a3.45,3.45,0,0,1-.21-1.12c0-.64,0-.83,0-2.44s0-1.8,0-2.44a3.45,3.45,0,0,1,.21-1.12A2,2,0,0,1,5.28,4.13,3.45,3.45,0,0,1,6.4,3.92C7,3.89,7.23,3.89,8.84,3.89Zm0,1.85a3.1,3.1,0,1,0,3.1,3.1A3.1,3.1,0,0,0,8.84,5.74Zm0,5.11a2,2,0,1,1,2-2A2,2,0,0,1,8.84,10.85Zm3.95-5.24a.73.73,0,0,1-.72.73.73.73,0,0,1-.73-.73.73.73,0,0,1,.73-.72A.72.72,0,0,1,12.79,5.61Z"/></g></g></svg>