<svg xmlns="http://www.w3.org/2000/svg" viewBox="0 0 17.68 17.68"><defs><style>.cls-1{fill:#273655;fill-rule:evenodd;}</style></defs><g id="Layer_2" data-name="Layer 2"><g id="Layer_6" data-name="Layer 6"><path class="cls-1" d="M15.52,0a2.16,2.16,0,0,1,2.16,2.16V15.52a2.16,2.16,0,0,1-2.16,2.16H2.16A2.16,2.16,0,0,1,0,15.52V2.16A2.16,2.16,0,0,1,2.16,0Zm-10,14.62V6.82H3v7.8Zm9.34,0V10.15c0-2.4-1.28-3.51-3-3.51A2.55,2.55,0,0,0,9.57,7.93V6.82H7c0,.73,0,7.8,0,7.8h2.6V10.26a1.75,1.75,0,0,1,.08-.63,1.43,1.43,0,0,1,1.33-1c.94,0,1.31.72,1.31,1.77v4.17ZM4.26,3.06A1.36,1.36,0,0,0,2.8,4.41,1.34,1.34,0,0,0,4.23,5.76h0a1.35,1.35,0,1,0,0-2.7Z"/></g></g></svg>