<svg xmlns="http://www.w3.org/2000/svg" viewBox="0 0 17.68 17.68"><defs><style>.cls-1{fill:#273655;fill-rule:evenodd;}</style></defs><g id="Layer_2" data-name="Layer 2"><g id="Layer_6" data-name="Layer 6"><path class="cls-1" d="M15.52,0a2.16,2.16,0,0,1,2.16,2.16V15.52a2.16,2.16,0,0,1-2.16,2.16H2.16A2.16,2.16,0,0,1,0,15.52V2.16A2.16,2.16,0,0,1,2.16,0ZM6.75,14.66A7.21,7.21,0,0,0,14,7.4V7.07a5.31,5.31,0,0,0,1.27-1.32,5.09,5.09,0,0,1-1.46.4,2.54,2.54,0,0,0,1.12-1.41,5.29,5.29,0,0,1-1.62.62A2.55,2.55,0,0,0,8.91,7.1,2.72,2.72,0,0,0,9,7.68,7.23,7.23,0,0,1,3.71,5,2.6,2.6,0,0,0,3.37,6.3,2.53,2.53,0,0,0,4.51,8.42,2.55,2.55,0,0,1,3.35,8.1v0A2.56,2.56,0,0,0,5.4,10.64a2.46,2.46,0,0,1-.67.09,2.61,2.61,0,0,1-.48-.05,2.53,2.53,0,0,0,2.38,1.77,5.07,5.07,0,0,1-3.17,1.09,6.08,6.08,0,0,1-.61,0,7.12,7.12,0,0,0,3.9,1.15Z"/></g></g></svg>