<svg xmlns="http://www.w3.org/2000/svg" viewBox="0 0 17.68 17.68"><defs><style>.cls-1{fill:#273655;fill-rule:evenodd;}</style></defs><g id="Layer_2" data-name="Layer 2"><g id="Layer_6" data-name="Layer 6"><path class="cls-1" d="M15.52,0a2.16,2.16,0,0,1,2.16,2.16V15.52a2.16,2.16,0,0,1-2.16,2.16H2.16A2.16,2.16,0,0,1,0,15.52V2.16A2.16,2.16,0,0,1,2.16,0Zm-2,4.41a6.19,6.19,0,0,0-9.74,7.47l-.88,3.21,3.28-.87a6.15,6.15,0,0,0,3,.76h0A6.19,6.19,0,0,0,15.3,8.79,6.1,6.1,0,0,0,13.49,4.41ZM9.12,13.93h0a5.23,5.23,0,0,1-2.62-.71l-.18-.12-1.95.51.52-1.89-.12-.2A5.08,5.08,0,0,1,4,8.78a5.14,5.14,0,0,1,8.78-3.63,5.07,5.07,0,0,1,1.51,3.64,5.15,5.15,0,0,1-5.14,5.14Zm2.82-3.85c-.16-.08-.92-.45-1.06-.5s-.24-.08-.35.07a6.84,6.84,0,0,1-.49.61.23.23,0,0,1-.33,0,4.16,4.16,0,0,1-1.25-.77A4.75,4.75,0,0,1,7.6,8.46c-.09-.15,0-.24.07-.32a2.15,2.15,0,0,0,.23-.27,1,1,0,0,0,.16-.25.34.34,0,0,0,0-.28c0-.07-.35-.83-.48-1.14s-.25-.26-.35-.27h-.3a.54.54,0,0,0-.41.19A1.73,1.73,0,0,0,6,7.41,3,3,0,0,0,6.6,9a7,7,0,0,0,2.64,2.33,8.28,8.28,0,0,0,.89.33,2.07,2.07,0,0,0,1,.06,1.56,1.56,0,0,0,1-.73,1.29,1.29,0,0,0,.09-.74c0-.06-.14-.1-.29-.18Z"/></g></g></svg>