<?xml version="1.0" encoding="UTF-8"?>
<svg id="Layer_2" data-name="Layer 2" xmlns="http://www.w3.org/2000/svg" viewBox="0 0 500 500">
  <defs>
    <style>
      .cls-1 {
        fill: #231f20;
        fill-rule: evenodd;
        stroke-width: 0px;
      }
    </style>
  </defs>
  <g id="Layer_1-2" data-name="Layer 1">
    <path class="cls-1" d="M444.44,0H55.56C24.87,0,0,24.87,0,55.56v388.88c0,30.69,24.87,55.56,55.56,55.56h388.88c30.69,0,55.56-24.87,55.56-55.56V55.56c0-30.69-24.87-55.56-55.56-55.56ZM151.18,430.56h-74.57v-240.75h74.57v240.75ZM113.54,158.29c-24.36,0-44.1-19.89-44.1-44.42s19.74-44.43,44.1-44.43,44.08,19.9,44.08,44.43-19.73,44.42-44.08,44.42ZM430.56,430.56h-74.2v-126.38c0-34.65-13.17-54.01-40.59-54.01-29.84,0-45.42,20.15-45.42,54.01v126.38h-71.51v-240.75h71.51v32.43s21.5-39.78,72.58-39.78,87.63,31.18,87.63,95.67v152.43Z"/>
  </g>
</svg>